solid OpenSCAD_Model
  facet normal -1 0 0
    outer loop
      vertex -17.1667 -5 0
      vertex -17.1667 5 2
      vertex -17.1667 5 0
    endloop
  endfacet
  facet normal -1 -0 0
    outer loop
      vertex -17.1667 5 2
      vertex -17.1667 -5 0
      vertex -17.1667 -5 2
    endloop
  endfacet
  facet normal 0 0 1
    outer loop
      vertex 15.1667 0 2
      vertex 17.1667 0 2
      vertex 17.1568 0.313952 2
    endloop
  endfacet
  facet normal 0 0 1
    outer loop
      vertex 15.1607 0.188371 2
      vertex 17.1568 0.313952 2
      vertex 17.1272 0.626666 2
    endloop
  endfacet
  facet normal 0 0 1
    outer loop
      vertex 17.1667 0 2
      vertex 15.1667 0 2
      vertex 17.1568 -0.313953 2
    endloop
  endfacet
  facet normal 0 0 1
    outer loop
      vertex 15.143 0.375999 2
      vertex 17.1272 0.626666 2
      vertex 17.0781 0.936906 2
    endloop
  endfacet
  facet normal -0 0 1
    outer loop
      vertex 15.1607 -0.188372 2
      vertex 17.1568 -0.313953 2
      vertex 15.1667 0 2
    endloop
  endfacet
  facet normal 0 0 1
    outer loop
      vertex 15.1135 0.562143 2
      vertex 17.0781 0.936906 2
      vertex 17.0096 1.24345 2
    endloop
  endfacet
  facet normal 0 0 1
    outer loop
      vertex 17.1568 -0.313953 2
      vertex 15.1607 -0.188372 2
      vertex 17.1272 -0.626667 2
    endloop
  endfacet
  facet normal 0 0 1
    outer loop
      vertex 15.0724 0.746069 2
      vertex 17.0096 1.24345 2
      vertex 16.9219 1.54508 2
    endloop
  endfacet
  facet normal -0 0 1
    outer loop
      vertex 15.143 -0.376 2
      vertex 17.1272 -0.626667 2
      vertex 15.1607 -0.188372 2
    endloop
  endfacet
  facet normal 0 0 1
    outer loop
      vertex 15.0198 0.927051 2
      vertex 16.9219 1.54508 2
      vertex 16.8155 1.84062 2
    endloop
  endfacet
  facet normal 0 0 1
    outer loop
      vertex 17.1272 -0.626667 2
      vertex 15.143 -0.376 2
      vertex 17.0781 -0.936907 2
    endloop
  endfacet
  facet normal 0 0 1
    outer loop
      vertex 14.956 1.10437 2
      vertex 16.8155 1.84062 2
      vertex 16.6908 2.1289 2
    endloop
  endfacet
  facet normal -0 0 1
    outer loop
      vertex 15.1135 -0.562144 2
      vertex 17.0781 -0.936907 2
      vertex 15.143 -0.376 2
    endloop
  endfacet
  facet normal 0 0 1
    outer loop
      vertex 14.8811 1.27734 2
      vertex 16.6908 2.1289 2
      vertex 16.5482 2.40877 2
    endloop
  endfacet
  facet normal 0 0 1
    outer loop
      vertex 17.0781 -0.936907 2
      vertex 15.1135 -0.562144 2
      vertex 17.0096 -1.24345 2
    endloop
  endfacet
  facet normal 0 0 1
    outer loop
      vertex 14.7956 1.44526 2
      vertex 16.5482 2.40877 2
      vertex 16.3883 2.67913 2
    endloop
  endfacet
  facet normal -0 0 1
    outer loop
      vertex 15.0724 -0.74607 2
      vertex 17.0096 -1.24345 2
      vertex 15.1135 -0.562144 2
    endloop
  endfacet
  facet normal 0 0 1
    outer loop
      vertex 14.6996 1.60748 2
      vertex 16.3883 2.67913 2
      vertex 16.2118 2.93893 2
    endloop
  endfacet
  facet normal 0 0 1
    outer loop
      vertex 17.0096 -1.24345 2
      vertex 15.0724 -0.74607 2
      vertex 16.9219 -1.54509 2
    endloop
  endfacet
  facet normal 0 0 1
    outer loop
      vertex 14.5937 1.76336 2
      vertex 16.2118 2.93893 2
      vertex 16.0192 3.18712 2
    endloop
  endfacet
  facet normal -0 0 1
    outer loop
      vertex 15.0198 -0.927052 2
      vertex 16.9219 -1.54509 2
      vertex 15.0724 -0.74607 2
    endloop
  endfacet
  facet normal 0 0 1
    outer loop
      vertex 14.4782 1.91227 2
      vertex 16.0192 3.18712 2
      vertex 15.8115 3.42274 2
    endloop
  endfacet
  facet normal 0 0 1
    outer loop
      vertex 16.9219 -1.54509 2
      vertex 15.0198 -0.927052 2
      vertex 16.8155 -1.84062 2
    endloop
  endfacet
  facet normal 0 0 1
    outer loop
      vertex 14.3536 2.05364 2
      vertex 15.8115 3.42274 2
      vertex 15.5894 3.64484 2
    endloop
  endfacet
  facet normal -0 0 1
    outer loop
      vertex 14.956 -1.10437 2
      vertex 16.8155 -1.84062 2
      vertex 15.0198 -0.927052 2
    endloop
  endfacet
  facet normal 0 0 1
    outer loop
      vertex 14.2203 2.18691 2
      vertex 15.5894 3.64484 2
      vertex 15.3538 3.85257 2
    endloop
  endfacet
  facet normal 0 0 1
    outer loop
      vertex 16.8155 -1.84062 2
      vertex 14.956 -1.10437 2
      vertex 16.6908 -2.1289 2
    endloop
  endfacet
  facet normal -0 0 1
    outer loop
      vertex 14.8811 -1.27734 2
      vertex 16.6908 -2.1289 2
      vertex 14.956 -1.10437 2
    endloop
  endfacet
  facet normal 0 0 1
    outer loop
      vertex 17.1568 0.313952 2
      vertex 15.1607 0.188371 2
      vertex 15.1667 0 2
    endloop
  endfacet
  facet normal 0 0 1
    outer loop
      vertex 17.1272 0.626666 2
      vertex 15.143 0.375999 2
      vertex 15.1607 0.188371 2
    endloop
  endfacet
  facet normal 0 0 1
    outer loop
      vertex 17.0781 0.936906 2
      vertex 15.1135 0.562143 2
      vertex 15.143 0.375999 2
    endloop
  endfacet
  facet normal 0 0 1
    outer loop
      vertex 14.0789 2.31154 2
      vertex 15.3538 3.85257 2
      vertex 15.1056 4.04508 2
    endloop
  endfacet
  facet normal 0 0 1
    outer loop
      vertex 17.0096 1.24345 2
      vertex 15.0724 0.746069 2
      vertex 15.1135 0.562143 2
    endloop
  endfacet
  facet normal 0 0 1
    outer loop
      vertex 16.9219 1.54508 2
      vertex 15.0198 0.927051 2
      vertex 15.0724 0.746069 2
    endloop
  endfacet
  facet normal 0 0 1
    outer loop
      vertex 16.8155 1.84062 2
      vertex 14.956 1.10437 2
      vertex 15.0198 0.927051 2
    endloop
  endfacet
  facet normal 0 0 1
    outer loop
      vertex 16.6908 2.1289 2
      vertex 14.8811 1.27734 2
      vertex 14.956 1.10437 2
    endloop
  endfacet
  facet normal 0 0 1
    outer loop
      vertex 13.93 2.42705 2
      vertex 15.1056 4.04508 2
      vertex 14.8458 4.22164 2
    endloop
  endfacet
  facet normal 0 0 1
    outer loop
      vertex 16.5482 2.40877 2
      vertex 14.7956 1.44526 2
      vertex 14.8811 1.27734 2
    endloop
  endfacet
  facet normal 0 0 1
    outer loop
      vertex 16.3883 2.67913 2
      vertex 14.6996 1.60748 2
      vertex 14.7956 1.44526 2
    endloop
  endfacet
  facet normal 0 0 1
    outer loop
      vertex 16.2118 2.93893 2
      vertex 14.5937 1.76336 2
      vertex 14.6996 1.60748 2
    endloop
  endfacet
  facet normal 0 0 1
    outer loop
      vertex 13.7741 2.53298 2
      vertex 14.8458 4.22164 2
      vertex 14.5754 4.38153 2
    endloop
  endfacet
  facet normal 0 0 1
    outer loop
      vertex 16.0192 3.18712 2
      vertex 14.4782 1.91227 2
      vertex 14.5937 1.76336 2
    endloop
  endfacet
  facet normal 0 0 1
    outer loop
      vertex 15.8115 3.42274 2
      vertex 14.3536 2.05364 2
      vertex 14.4782 1.91227 2
    endloop
  endfacet
  facet normal 0 0 1
    outer loop
      vertex 13.6119 2.62892 2
      vertex 14.5754 4.38153 2
      vertex 14.2956 4.52413 2
    endloop
  endfacet
  facet normal 0 0 1
    outer loop
      vertex 15.5894 3.64484 2
      vertex 14.2203 2.18691 2
      vertex 14.3536 2.05364 2
    endloop
  endfacet
  facet normal 0 0 1
    outer loop
      vertex 15.3538 3.85257 2
      vertex 14.0789 2.31154 2
      vertex 14.2203 2.18691 2
    endloop
  endfacet
  facet normal 0 0 1
    outer loop
      vertex 13.444 2.71448 2
      vertex 14.2956 4.52413 2
      vertex 14.0073 4.64888 2
    endloop
  endfacet
  facet normal 0 0 1
    outer loop
      vertex 15.1056 4.04508 2
      vertex 13.93 2.42705 2
      vertex 14.0789 2.31154 2
    endloop
  endfacet
  facet normal 0 0 1
    outer loop
      vertex 14.8458 4.22164 2
      vertex 13.7741 2.53298 2
      vertex 13.93 2.42705 2
    endloop
  endfacet
  facet normal 0 0 1
    outer loop
      vertex 13.271 2.78933 2
      vertex 14.0073 4.64888 2
      vertex 13.7118 4.75528 2
    endloop
  endfacet
  facet normal 0 0 1
    outer loop
      vertex 14.5754 4.38153 2
      vertex 13.6119 2.62892 2
      vertex 13.7741 2.53298 2
    endloop
  endfacet
  facet normal 0 0 1
    outer loop
      vertex 14.2956 4.52413 2
      vertex 13.444 2.71448 2
      vertex 13.6119 2.62892 2
    endloop
  endfacet
  facet normal 0 0 1
    outer loop
      vertex 13.0937 2.85317 2
      vertex 13.7118 4.75528 2
      vertex 13.4101 4.84292 2
    endloop
  endfacet
  facet normal 0 0 1
    outer loop
      vertex 14.0073 4.64888 2
      vertex 13.271 2.78933 2
      vertex 13.444 2.71448 2
    endloop
  endfacet
  facet normal 0 0 1
    outer loop
      vertex 12.9127 2.90575 2
      vertex 13.4101 4.84292 2
      vertex 13.1036 4.91144 2
    endloop
  endfacet
  facet normal 0 0 1
    outer loop
      vertex 13.7118 4.75528 2
      vertex 13.0937 2.85317 2
      vertex 13.271 2.78933 2
    endloop
  endfacet
  facet normal 0 0 1
    outer loop
      vertex 13.4101 4.84292 2
      vertex 12.9127 2.90575 2
      vertex 13.0937 2.85317 2
    endloop
  endfacet
  facet normal 0 0 1
    outer loop
      vertex 12.7288 2.94686 2
      vertex 13.1036 4.91144 2
      vertex 12.7933 4.96057 2
    endloop
  endfacet
  facet normal 0 0 1
    outer loop
      vertex 13.1036 4.91144 2
      vertex 12.7288 2.94686 2
      vertex 12.9127 2.90575 2
    endloop
  endfacet
  facet normal 0 0 1
    outer loop
      vertex 12.7933 4.96057 2
      vertex 12.5427 2.97634 2
      vertex 12.7288 2.94686 2
    endloop
  endfacet
  facet normal 0 0 1
    outer loop
      vertex 12.4806 4.99013 2
      vertex 12.5427 2.97634 2
      vertex 12.7933 4.96057 2
    endloop
  endfacet
  facet normal 0 0 1
    outer loop
      vertex 12.4806 4.99013 2
      vertex 12.355 2.99408 2
      vertex 12.5427 2.97634 2
    endloop
  endfacet
  facet normal 0 0 1
    outer loop
      vertex 12.1667 5 2
      vertex 12.355 2.99408 2
      vertex 12.4806 4.99013 2
    endloop
  endfacet
  facet normal 0 0 1
    outer loop
      vertex 12.1667 5 2
      vertex 12.1667 3 2
      vertex 12.355 2.99408 2
    endloop
  endfacet
  facet normal 0 0 1
    outer loop
      vertex 12.1667 5 2
      vertex 11.9783 2.99408 2
      vertex 12.1667 3 2
    endloop
  endfacet
  facet normal 0 0 1
    outer loop
      vertex 12.1667 5 2
      vertex 11.7907 2.97634 2
      vertex 11.9783 2.99408 2
    endloop
  endfacet
  facet normal 0 0 1
    outer loop
      vertex 12.1667 5 2
      vertex 11.6045 2.94686 2
      vertex 11.7907 2.97634 2
    endloop
  endfacet
  facet normal 0 0 1
    outer loop
      vertex 12.1667 5 2
      vertex 11.4206 2.90575 2
      vertex 11.6045 2.94686 2
    endloop
  endfacet
  facet normal 0 0 1
    outer loop
      vertex 12.1667 5 2
      vertex 11.2396 2.85317 2
      vertex 11.4206 2.90575 2
    endloop
  endfacet
  facet normal 0 0 1
    outer loop
      vertex 12.1667 5 2
      vertex 11.0623 2.78933 2
      vertex 11.2396 2.85317 2
    endloop
  endfacet
  facet normal 0 0 1
    outer loop
      vertex 12.1667 5 2
      vertex 10.8893 2.71448 2
      vertex 11.0623 2.78933 2
    endloop
  endfacet
  facet normal 0 0 1
    outer loop
      vertex 12.1667 5 2
      vertex 10.7214 2.62892 2
      vertex 10.8893 2.71448 2
    endloop
  endfacet
  facet normal 0 0 1
    outer loop
      vertex 12.1667 5 2
      vertex 10.5592 2.53298 2
      vertex 10.7214 2.62892 2
    endloop
  endfacet
  facet normal 0 0 1
    outer loop
      vertex 12.1667 5 2
      vertex 10.4033 2.42705 2
      vertex 10.5592 2.53298 2
    endloop
  endfacet
  facet normal 0 0 1
    outer loop
      vertex 12.1667 5 2
      vertex 10.2544 2.31154 2
      vertex 10.4033 2.42705 2
    endloop
  endfacet
  facet normal 0 0 1
    outer loop
      vertex 12.1667 5 2
      vertex 10.113 2.18691 2
      vertex 10.2544 2.31154 2
    endloop
  endfacet
  facet normal 0 0 1
    outer loop
      vertex 12.1667 5 2
      vertex 9.97976 2.05364 2
      vertex 10.113 2.18691 2
    endloop
  endfacet
  facet normal -0 0 1
    outer loop
      vertex -17.1667 5 2
      vertex 9.97976 2.05364 2
      vertex 12.1667 5 2
    endloop
  endfacet
  facet normal 0 0 1
    outer loop
      vertex 9.97976 2.05364 2
      vertex -17.1667 5 2
      vertex 9.85513 1.91227 2
    endloop
  endfacet
  facet normal 0 0 1
    outer loop
      vertex 9.17259 0.188371 2
      vertex -17.1667 5 2
      vertex 9.16667 0 2
    endloop
  endfacet
  facet normal 0 0 1
    outer loop
      vertex 9.19032 0.375999 2
      vertex -17.1667 5 2
      vertex 9.17259 0.188371 2
    endloop
  endfacet
  facet normal 0 0 1
    outer loop
      vertex 9.2198 0.562143 2
      vertex -17.1667 5 2
      vertex 9.19032 0.375999 2
    endloop
  endfacet
  facet normal 0 0 1
    outer loop
      vertex 9.26092 0.746069 2
      vertex -17.1667 5 2
      vertex 9.2198 0.562143 2
    endloop
  endfacet
  facet normal 0 0 1
    outer loop
      vertex 9.3135 0.927051 2
      vertex -17.1667 5 2
      vertex 9.26092 0.746069 2
    endloop
  endfacet
  facet normal 0 0 1
    outer loop
      vertex 9.37734 1.10437 2
      vertex -17.1667 5 2
      vertex 9.3135 0.927051 2
    endloop
  endfacet
  facet normal 0 0 1
    outer loop
      vertex 9.45218 1.27734 2
      vertex -17.1667 5 2
      vertex 9.37734 1.10437 2
    endloop
  endfacet
  facet normal 0 0 1
    outer loop
      vertex 9.53775 1.44526 2
      vertex -17.1667 5 2
      vertex 9.45218 1.27734 2
    endloop
  endfacet
  facet normal 0 0 1
    outer loop
      vertex 9.63368 1.60748 2
      vertex -17.1667 5 2
      vertex 9.53775 1.44526 2
    endloop
  endfacet
  facet normal 0 0 1
    outer loop
      vertex 9.73961 1.76336 2
      vertex -17.1667 5 2
      vertex 9.63368 1.60748 2
    endloop
  endfacet
  facet normal 0 0 1
    outer loop
      vertex 9.85513 1.91227 2
      vertex -17.1667 5 2
      vertex 9.73961 1.76336 2
    endloop
  endfacet
  facet normal 0 0 1
    outer loop
      vertex 16.6908 -2.1289 2
      vertex 14.8811 -1.27734 2
      vertex 16.5482 -2.40877 2
    endloop
  endfacet
  facet normal -0 0 1
    outer loop
      vertex 14.7956 -1.44526 2
      vertex 16.5482 -2.40877 2
      vertex 14.8811 -1.27734 2
    endloop
  endfacet
  facet normal 0 0 1
    outer loop
      vertex 16.5482 -2.40877 2
      vertex 14.7956 -1.44526 2
      vertex 16.3883 -2.67913 2
    endloop
  endfacet
  facet normal -0 0 1
    outer loop
      vertex 14.6996 -1.60748 2
      vertex 16.3883 -2.67913 2
      vertex 14.7956 -1.44526 2
    endloop
  endfacet
  facet normal 0 0 1
    outer loop
      vertex 16.3883 -2.67913 2
      vertex 14.6996 -1.60748 2
      vertex 16.2118 -2.93893 2
    endloop
  endfacet
  facet normal -0 0 1
    outer loop
      vertex 14.5937 -1.76336 2
      vertex 16.2118 -2.93893 2
      vertex 14.6996 -1.60748 2
    endloop
  endfacet
  facet normal 0 0 1
    outer loop
      vertex 16.2118 -2.93893 2
      vertex 14.5937 -1.76336 2
      vertex 16.0192 -3.18712 2
    endloop
  endfacet
  facet normal -0 0 1
    outer loop
      vertex 14.4782 -1.91227 2
      vertex 16.0192 -3.18712 2
      vertex 14.5937 -1.76336 2
    endloop
  endfacet
  facet normal 0 0 1
    outer loop
      vertex 16.0192 -3.18712 2
      vertex 14.4782 -1.91227 2
      vertex 15.8115 -3.42274 2
    endloop
  endfacet
  facet normal -0 0 1
    outer loop
      vertex 14.3536 -2.05364 2
      vertex 15.8115 -3.42274 2
      vertex 14.4782 -1.91227 2
    endloop
  endfacet
  facet normal 0 0 1
    outer loop
      vertex 15.8115 -3.42274 2
      vertex 14.3536 -2.05364 2
      vertex 15.5894 -3.64484 2
    endloop
  endfacet
  facet normal -0 0 1
    outer loop
      vertex 14.2203 -2.18691 2
      vertex 15.5894 -3.64484 2
      vertex 14.3536 -2.05364 2
    endloop
  endfacet
  facet normal 0 0 1
    outer loop
      vertex 15.5894 -3.64484 2
      vertex 14.2203 -2.18691 2
      vertex 15.3538 -3.85257 2
    endloop
  endfacet
  facet normal -0 0 1
    outer loop
      vertex 14.0789 -2.31154 2
      vertex 15.3538 -3.85257 2
      vertex 14.2203 -2.18691 2
    endloop
  endfacet
  facet normal 0 0 1
    outer loop
      vertex 15.3538 -3.85257 2
      vertex 14.0789 -2.31154 2
      vertex 15.1056 -4.04509 2
    endloop
  endfacet
  facet normal -0 0 1
    outer loop
      vertex 13.93 -2.42705 2
      vertex 15.1056 -4.04509 2
      vertex 14.0789 -2.31154 2
    endloop
  endfacet
  facet normal 0 0 1
    outer loop
      vertex 15.1056 -4.04509 2
      vertex 13.93 -2.42705 2
      vertex 14.8458 -4.22164 2
    endloop
  endfacet
  facet normal -0 0 1
    outer loop
      vertex 13.7741 -2.53298 2
      vertex 14.8458 -4.22164 2
      vertex 13.93 -2.42705 2
    endloop
  endfacet
  facet normal 0 0 1
    outer loop
      vertex 14.8458 -4.22164 2
      vertex 13.7741 -2.53298 2
      vertex 14.5754 -4.38153 2
    endloop
  endfacet
  facet normal -0 0 1
    outer loop
      vertex 13.6119 -2.62892 2
      vertex 14.5754 -4.38153 2
      vertex 13.7741 -2.53298 2
    endloop
  endfacet
  facet normal 0 0 1
    outer loop
      vertex 14.5754 -4.38153 2
      vertex 13.6119 -2.62892 2
      vertex 14.2956 -4.52414 2
    endloop
  endfacet
  facet normal -0 0 1
    outer loop
      vertex 13.444 -2.71448 2
      vertex 14.2956 -4.52414 2
      vertex 13.6119 -2.62892 2
    endloop
  endfacet
  facet normal 0 0 1
    outer loop
      vertex 14.2956 -4.52414 2
      vertex 13.444 -2.71448 2
      vertex 14.0073 -4.64888 2
    endloop
  endfacet
  facet normal -0 0 1
    outer loop
      vertex 13.271 -2.78933 2
      vertex 14.0073 -4.64888 2
      vertex 13.444 -2.71448 2
    endloop
  endfacet
  facet normal 0 0 1
    outer loop
      vertex 14.0073 -4.64888 2
      vertex 13.271 -2.78933 2
      vertex 13.7118 -4.75528 2
    endloop
  endfacet
  facet normal -0 0 1
    outer loop
      vertex 13.0937 -2.85317 2
      vertex 13.7118 -4.75528 2
      vertex 13.271 -2.78933 2
    endloop
  endfacet
  facet normal 0 0 1
    outer loop
      vertex 13.7118 -4.75528 2
      vertex 13.0937 -2.85317 2
      vertex 13.4101 -4.84292 2
    endloop
  endfacet
  facet normal -0 0 1
    outer loop
      vertex 12.9127 -2.90575 2
      vertex 13.4101 -4.84292 2
      vertex 13.0937 -2.85317 2
    endloop
  endfacet
  facet normal 0 0 1
    outer loop
      vertex 13.4101 -4.84292 2
      vertex 12.9127 -2.90575 2
      vertex 13.1036 -4.91144 2
    endloop
  endfacet
  facet normal -0 0 1
    outer loop
      vertex 12.7288 -2.94686 2
      vertex 13.1036 -4.91144 2
      vertex 12.9127 -2.90575 2
    endloop
  endfacet
  facet normal 0 0 1
    outer loop
      vertex 13.1036 -4.91144 2
      vertex 12.7288 -2.94686 2
      vertex 12.7933 -4.96057 2
    endloop
  endfacet
  facet normal -0 0 1
    outer loop
      vertex 12.5427 -2.97634 2
      vertex 12.7933 -4.96057 2
      vertex 12.7288 -2.94686 2
    endloop
  endfacet
  facet normal 0 0 1
    outer loop
      vertex 12.5427 -2.97634 2
      vertex 12.4806 -4.99013 2
      vertex 12.7933 -4.96057 2
    endloop
  endfacet
  facet normal -0 0 1
    outer loop
      vertex 12.355 -2.99408 2
      vertex 12.4806 -4.99013 2
      vertex 12.5427 -2.97634 2
    endloop
  endfacet
  facet normal -0 0 1
    outer loop
      vertex 12.1667 -3 2
      vertex 12.4806 -4.99013 2
      vertex 12.355 -2.99408 2
    endloop
  endfacet
  facet normal 0 0 1
    outer loop
      vertex 12.1667 -3 2
      vertex 12.1667 -5 2
      vertex 12.4806 -4.99013 2
    endloop
  endfacet
  facet normal 0 0 1
    outer loop
      vertex 11.9783 -2.99408 2
      vertex 12.1667 -5 2
      vertex 12.1667 -3 2
    endloop
  endfacet
  facet normal 0 0 1
    outer loop
      vertex 11.7907 -2.97634 2
      vertex 12.1667 -5 2
      vertex 11.9783 -2.99408 2
    endloop
  endfacet
  facet normal 0 0 1
    outer loop
      vertex 11.6045 -2.94686 2
      vertex 12.1667 -5 2
      vertex 11.7907 -2.97634 2
    endloop
  endfacet
  facet normal 0 0 1
    outer loop
      vertex 11.4206 -2.90575 2
      vertex 12.1667 -5 2
      vertex 11.6045 -2.94686 2
    endloop
  endfacet
  facet normal 0 0 1
    outer loop
      vertex 11.2396 -2.85317 2
      vertex 12.1667 -5 2
      vertex 11.4206 -2.90575 2
    endloop
  endfacet
  facet normal 0 0 1
    outer loop
      vertex 11.0623 -2.78933 2
      vertex 12.1667 -5 2
      vertex 11.2396 -2.85317 2
    endloop
  endfacet
  facet normal 0 0 1
    outer loop
      vertex 10.8893 -2.71448 2
      vertex 12.1667 -5 2
      vertex 11.0623 -2.78933 2
    endloop
  endfacet
  facet normal 0 0 1
    outer loop
      vertex 10.7214 -2.62892 2
      vertex 12.1667 -5 2
      vertex 10.8893 -2.71448 2
    endloop
  endfacet
  facet normal 0 0 1
    outer loop
      vertex 10.5592 -2.53298 2
      vertex 12.1667 -5 2
      vertex 10.7214 -2.62892 2
    endloop
  endfacet
  facet normal 0 0 1
    outer loop
      vertex 10.4033 -2.42705 2
      vertex 12.1667 -5 2
      vertex 10.5592 -2.53298 2
    endloop
  endfacet
  facet normal 0 0 1
    outer loop
      vertex 10.2544 -2.31154 2
      vertex 12.1667 -5 2
      vertex 10.4033 -2.42705 2
    endloop
  endfacet
  facet normal 0 0 1
    outer loop
      vertex 10.113 -2.18691 2
      vertex 12.1667 -5 2
      vertex 10.2544 -2.31154 2
    endloop
  endfacet
  facet normal 0 0 1
    outer loop
      vertex 9.97976 -2.05364 2
      vertex 12.1667 -5 2
      vertex 10.113 -2.18691 2
    endloop
  endfacet
  facet normal 0 0 1
    outer loop
      vertex -17.1667 -5 2
      vertex 9.97976 -2.05364 2
      vertex 9.85513 -1.91227 2
    endloop
  endfacet
  facet normal 0 0 1
    outer loop
      vertex -17.1667 -5 2
      vertex 9.85513 -1.91227 2
      vertex 9.73961 -1.76336 2
    endloop
  endfacet
  facet normal 0 0 1
    outer loop
      vertex -17.1667 -5 2
      vertex 9.16667 0 2
      vertex -17.1667 5 2
    endloop
  endfacet
  facet normal 0 0 1
    outer loop
      vertex 9.16667 0 2
      vertex -17.1667 -5 2
      vertex 9.17259 -0.188372 2
    endloop
  endfacet
  facet normal 0 0 1
    outer loop
      vertex 9.17259 -0.188372 2
      vertex -17.1667 -5 2
      vertex 9.19032 -0.376 2
    endloop
  endfacet
  facet normal 0 0 1
    outer loop
      vertex 9.19032 -0.376 2
      vertex -17.1667 -5 2
      vertex 9.2198 -0.562144 2
    endloop
  endfacet
  facet normal 0 0 1
    outer loop
      vertex 9.2198 -0.562144 2
      vertex -17.1667 -5 2
      vertex 9.26092 -0.74607 2
    endloop
  endfacet
  facet normal 0 0 1
    outer loop
      vertex 9.26092 -0.74607 2
      vertex -17.1667 -5 2
      vertex 9.3135 -0.927052 2
    endloop
  endfacet
  facet normal 0 0 1
    outer loop
      vertex 9.3135 -0.927052 2
      vertex -17.1667 -5 2
      vertex 9.37734 -1.10437 2
    endloop
  endfacet
  facet normal 0 0 1
    outer loop
      vertex 9.37734 -1.10437 2
      vertex -17.1667 -5 2
      vertex 9.45218 -1.27734 2
    endloop
  endfacet
  facet normal 0 0 1
    outer loop
      vertex 9.45218 -1.27734 2
      vertex -17.1667 -5 2
      vertex 9.53775 -1.44526 2
    endloop
  endfacet
  facet normal 0 0 1
    outer loop
      vertex 9.53775 -1.44526 2
      vertex -17.1667 -5 2
      vertex 9.63368 -1.60748 2
    endloop
  endfacet
  facet normal 0 0 1
    outer loop
      vertex 9.63368 -1.60748 2
      vertex -17.1667 -5 2
      vertex 9.73961 -1.76336 2
    endloop
  endfacet
  facet normal 0 0 1
    outer loop
      vertex 9.97976 -2.05364 2
      vertex -17.1667 -5 2
      vertex 12.1667 -5 2
    endloop
  endfacet
  facet normal 0 1 -0
    outer loop
      vertex 12.1667 5 0
      vertex -17.1667 5 2
      vertex 12.1667 5 2
    endloop
  endfacet
  facet normal 0 1 0
    outer loop
      vertex -17.1667 5 2
      vertex 12.1667 5 0
      vertex -17.1667 5 0
    endloop
  endfacet
  facet normal 0 0 -1
    outer loop
      vertex 15.1667 0 0
      vertex 17.1667 0 0
      vertex 17.1568 -0.313953 0
    endloop
  endfacet
  facet normal 0 0 -1
    outer loop
      vertex 15.1607 -0.188372 0
      vertex 17.1568 -0.313953 0
      vertex 17.1272 -0.626667 0
    endloop
  endfacet
  facet normal 0 0 -1
    outer loop
      vertex 17.1667 0 0
      vertex 15.1667 0 0
      vertex 17.1568 0.313952 0
    endloop
  endfacet
  facet normal 0 0 -1
    outer loop
      vertex 15.143 -0.376 0
      vertex 17.1272 -0.626667 0
      vertex 17.0781 -0.936907 0
    endloop
  endfacet
  facet normal 0 0 -1
    outer loop
      vertex 15.1607 0.188371 0
      vertex 17.1568 0.313952 0
      vertex 15.1667 0 0
    endloop
  endfacet
  facet normal 0 0 -1
    outer loop
      vertex 15.1135 -0.562144 0
      vertex 17.0781 -0.936907 0
      vertex 17.0096 -1.24345 0
    endloop
  endfacet
  facet normal -0 0 -1
    outer loop
      vertex 17.1568 0.313952 0
      vertex 15.1607 0.188371 0
      vertex 17.1272 0.626666 0
    endloop
  endfacet
  facet normal 0 0 -1
    outer loop
      vertex 15.0724 -0.74607 0
      vertex 17.0096 -1.24345 0
      vertex 16.9219 -1.54509 0
    endloop
  endfacet
  facet normal 0 0 -1
    outer loop
      vertex 15.143 0.375999 0
      vertex 17.1272 0.626666 0
      vertex 15.1607 0.188371 0
    endloop
  endfacet
  facet normal 0 0 -1
    outer loop
      vertex 15.0198 -0.927052 0
      vertex 16.9219 -1.54509 0
      vertex 16.8155 -1.84062 0
    endloop
  endfacet
  facet normal -0 0 -1
    outer loop
      vertex 17.1272 0.626666 0
      vertex 15.143 0.375999 0
      vertex 17.0781 0.936906 0
    endloop
  endfacet
  facet normal 0 0 -1
    outer loop
      vertex 14.956 -1.10437 0
      vertex 16.8155 -1.84062 0
      vertex 16.6908 -2.1289 0
    endloop
  endfacet
  facet normal 0 0 -1
    outer loop
      vertex 15.1135 0.562143 0
      vertex 17.0781 0.936906 0
      vertex 15.143 0.375999 0
    endloop
  endfacet
  facet normal 0 0 -1
    outer loop
      vertex 14.8811 -1.27734 0
      vertex 16.6908 -2.1289 0
      vertex 16.5482 -2.40877 0
    endloop
  endfacet
  facet normal -0 0 -1
    outer loop
      vertex 17.0781 0.936906 0
      vertex 15.1135 0.562143 0
      vertex 17.0096 1.24345 0
    endloop
  endfacet
  facet normal 0 0 -1
    outer loop
      vertex 14.7956 -1.44526 0
      vertex 16.5482 -2.40877 0
      vertex 16.3883 -2.67913 0
    endloop
  endfacet
  facet normal 0 0 -1
    outer loop
      vertex 15.0724 0.746069 0
      vertex 17.0096 1.24345 0
      vertex 15.1135 0.562143 0
    endloop
  endfacet
  facet normal 0 0 -1
    outer loop
      vertex 14.6996 -1.60748 0
      vertex 16.3883 -2.67913 0
      vertex 16.2118 -2.93893 0
    endloop
  endfacet
  facet normal -0 0 -1
    outer loop
      vertex 17.0096 1.24345 0
      vertex 15.0724 0.746069 0
      vertex 16.9219 1.54508 0
    endloop
  endfacet
  facet normal 0 0 -1
    outer loop
      vertex 14.5937 -1.76336 0
      vertex 16.2118 -2.93893 0
      vertex 16.0192 -3.18712 0
    endloop
  endfacet
  facet normal 0 0 -1
    outer loop
      vertex 15.0198 0.927051 0
      vertex 16.9219 1.54508 0
      vertex 15.0724 0.746069 0
    endloop
  endfacet
  facet normal 0 0 -1
    outer loop
      vertex 14.4782 -1.91227 0
      vertex 16.0192 -3.18712 0
      vertex 15.8115 -3.42274 0
    endloop
  endfacet
  facet normal -0 0 -1
    outer loop
      vertex 16.9219 1.54508 0
      vertex 15.0198 0.927051 0
      vertex 16.8155 1.84062 0
    endloop
  endfacet
  facet normal 0 0 -1
    outer loop
      vertex 14.3536 -2.05364 0
      vertex 15.8115 -3.42274 0
      vertex 15.5894 -3.64484 0
    endloop
  endfacet
  facet normal 0 0 -1
    outer loop
      vertex 14.956 1.10437 0
      vertex 16.8155 1.84062 0
      vertex 15.0198 0.927051 0
    endloop
  endfacet
  facet normal 0 0 -1
    outer loop
      vertex 14.2203 -2.18691 0
      vertex 15.5894 -3.64484 0
      vertex 15.3538 -3.85257 0
    endloop
  endfacet
  facet normal -0 0 -1
    outer loop
      vertex 16.8155 1.84062 0
      vertex 14.956 1.10437 0
      vertex 16.6908 2.1289 0
    endloop
  endfacet
  facet normal 0 0 -1
    outer loop
      vertex 14.8811 1.27734 0
      vertex 16.6908 2.1289 0
      vertex 14.956 1.10437 0
    endloop
  endfacet
  facet normal 0 0 -1
    outer loop
      vertex 17.1568 -0.313953 0
      vertex 15.1607 -0.188372 0
      vertex 15.1667 0 0
    endloop
  endfacet
  facet normal 0 0 -1
    outer loop
      vertex 17.1272 -0.626667 0
      vertex 15.143 -0.376 0
      vertex 15.1607 -0.188372 0
    endloop
  endfacet
  facet normal 0 0 -1
    outer loop
      vertex 17.0781 -0.936907 0
      vertex 15.1135 -0.562144 0
      vertex 15.143 -0.376 0
    endloop
  endfacet
  facet normal 0 0 -1
    outer loop
      vertex 14.0789 -2.31154 0
      vertex 15.3538 -3.85257 0
      vertex 15.1056 -4.04509 0
    endloop
  endfacet
  facet normal 0 0 -1
    outer loop
      vertex 17.0096 -1.24345 0
      vertex 15.0724 -0.74607 0
      vertex 15.1135 -0.562144 0
    endloop
  endfacet
  facet normal 0 0 -1
    outer loop
      vertex 16.9219 -1.54509 0
      vertex 15.0198 -0.927052 0
      vertex 15.0724 -0.74607 0
    endloop
  endfacet
  facet normal 0 0 -1
    outer loop
      vertex 16.8155 -1.84062 0
      vertex 14.956 -1.10437 0
      vertex 15.0198 -0.927052 0
    endloop
  endfacet
  facet normal 0 0 -1
    outer loop
      vertex 16.6908 -2.1289 0
      vertex 14.8811 -1.27734 0
      vertex 14.956 -1.10437 0
    endloop
  endfacet
  facet normal 0 0 -1
    outer loop
      vertex 13.93 -2.42705 0
      vertex 15.1056 -4.04509 0
      vertex 14.8458 -4.22164 0
    endloop
  endfacet
  facet normal 0 0 -1
    outer loop
      vertex 16.5482 -2.40877 0
      vertex 14.7956 -1.44526 0
      vertex 14.8811 -1.27734 0
    endloop
  endfacet
  facet normal 0 0 -1
    outer loop
      vertex 16.3883 -2.67913 0
      vertex 14.6996 -1.60748 0
      vertex 14.7956 -1.44526 0
    endloop
  endfacet
  facet normal 0 0 -1
    outer loop
      vertex 16.2118 -2.93893 0
      vertex 14.5937 -1.76336 0
      vertex 14.6996 -1.60748 0
    endloop
  endfacet
  facet normal 0 0 -1
    outer loop
      vertex 13.7741 -2.53298 0
      vertex 14.8458 -4.22164 0
      vertex 14.5754 -4.38153 0
    endloop
  endfacet
  facet normal 0 0 -1
    outer loop
      vertex 16.0192 -3.18712 0
      vertex 14.4782 -1.91227 0
      vertex 14.5937 -1.76336 0
    endloop
  endfacet
  facet normal 0 0 -1
    outer loop
      vertex 15.8115 -3.42274 0
      vertex 14.3536 -2.05364 0
      vertex 14.4782 -1.91227 0
    endloop
  endfacet
  facet normal 0 0 -1
    outer loop
      vertex 13.6119 -2.62892 0
      vertex 14.5754 -4.38153 0
      vertex 14.2956 -4.52414 0
    endloop
  endfacet
  facet normal 0 0 -1
    outer loop
      vertex 15.5894 -3.64484 0
      vertex 14.2203 -2.18691 0
      vertex 14.3536 -2.05364 0
    endloop
  endfacet
  facet normal 0 0 -1
    outer loop
      vertex 15.3538 -3.85257 0
      vertex 14.0789 -2.31154 0
      vertex 14.2203 -2.18691 0
    endloop
  endfacet
  facet normal 0 0 -1
    outer loop
      vertex 13.444 -2.71448 0
      vertex 14.2956 -4.52414 0
      vertex 14.0073 -4.64888 0
    endloop
  endfacet
  facet normal 0 0 -1
    outer loop
      vertex 15.1056 -4.04509 0
      vertex 13.93 -2.42705 0
      vertex 14.0789 -2.31154 0
    endloop
  endfacet
  facet normal 0 0 -1
    outer loop
      vertex 14.8458 -4.22164 0
      vertex 13.7741 -2.53298 0
      vertex 13.93 -2.42705 0
    endloop
  endfacet
  facet normal 0 0 -1
    outer loop
      vertex 13.271 -2.78933 0
      vertex 14.0073 -4.64888 0
      vertex 13.7118 -4.75528 0
    endloop
  endfacet
  facet normal 0 0 -1
    outer loop
      vertex 14.5754 -4.38153 0
      vertex 13.6119 -2.62892 0
      vertex 13.7741 -2.53298 0
    endloop
  endfacet
  facet normal 0 0 -1
    outer loop
      vertex 14.2956 -4.52414 0
      vertex 13.444 -2.71448 0
      vertex 13.6119 -2.62892 0
    endloop
  endfacet
  facet normal 0 0 -1
    outer loop
      vertex 13.0937 -2.85317 0
      vertex 13.7118 -4.75528 0
      vertex 13.4101 -4.84292 0
    endloop
  endfacet
  facet normal 0 0 -1
    outer loop
      vertex 14.0073 -4.64888 0
      vertex 13.271 -2.78933 0
      vertex 13.444 -2.71448 0
    endloop
  endfacet
  facet normal 0 0 -1
    outer loop
      vertex 12.9127 -2.90575 0
      vertex 13.4101 -4.84292 0
      vertex 13.1036 -4.91144 0
    endloop
  endfacet
  facet normal 0 0 -1
    outer loop
      vertex 13.7118 -4.75528 0
      vertex 13.0937 -2.85317 0
      vertex 13.271 -2.78933 0
    endloop
  endfacet
  facet normal 0 0 -1
    outer loop
      vertex 13.4101 -4.84292 0
      vertex 12.9127 -2.90575 0
      vertex 13.0937 -2.85317 0
    endloop
  endfacet
  facet normal 0 0 -1
    outer loop
      vertex 12.7288 -2.94686 0
      vertex 13.1036 -4.91144 0
      vertex 12.7933 -4.96057 0
    endloop
  endfacet
  facet normal 0 0 -1
    outer loop
      vertex 13.1036 -4.91144 0
      vertex 12.7288 -2.94686 0
      vertex 12.9127 -2.90575 0
    endloop
  endfacet
  facet normal 0 0 -1
    outer loop
      vertex 12.7933 -4.96057 0
      vertex 12.5427 -2.97634 0
      vertex 12.7288 -2.94686 0
    endloop
  endfacet
  facet normal 0 0 -1
    outer loop
      vertex 12.4806 -4.99013 0
      vertex 12.5427 -2.97634 0
      vertex 12.7933 -4.96057 0
    endloop
  endfacet
  facet normal 0 0 -1
    outer loop
      vertex 12.4806 -4.99013 0
      vertex 12.355 -2.99408 0
      vertex 12.5427 -2.97634 0
    endloop
  endfacet
  facet normal 0 0 -1
    outer loop
      vertex 12.1667 -5 0
      vertex 12.355 -2.99408 0
      vertex 12.4806 -4.99013 0
    endloop
  endfacet
  facet normal 0 0 -1
    outer loop
      vertex 12.1667 -5 0
      vertex 12.1667 -3 0
      vertex 12.355 -2.99408 0
    endloop
  endfacet
  facet normal 0 0 -1
    outer loop
      vertex 12.1667 -5 0
      vertex 11.9783 -2.99408 0
      vertex 12.1667 -3 0
    endloop
  endfacet
  facet normal 0 0 -1
    outer loop
      vertex 12.1667 -5 0
      vertex 11.7907 -2.97634 0
      vertex 11.9783 -2.99408 0
    endloop
  endfacet
  facet normal 0 0 -1
    outer loop
      vertex 12.1667 -5 0
      vertex 11.6045 -2.94686 0
      vertex 11.7907 -2.97634 0
    endloop
  endfacet
  facet normal 0 0 -1
    outer loop
      vertex 12.1667 -5 0
      vertex 11.4206 -2.90575 0
      vertex 11.6045 -2.94686 0
    endloop
  endfacet
  facet normal 0 0 -1
    outer loop
      vertex 12.1667 -5 0
      vertex 11.2396 -2.85317 0
      vertex 11.4206 -2.90575 0
    endloop
  endfacet
  facet normal 0 0 -1
    outer loop
      vertex 12.1667 -5 0
      vertex 11.0623 -2.78933 0
      vertex 11.2396 -2.85317 0
    endloop
  endfacet
  facet normal 0 0 -1
    outer loop
      vertex 12.1667 -5 0
      vertex 10.8893 -2.71448 0
      vertex 11.0623 -2.78933 0
    endloop
  endfacet
  facet normal 0 0 -1
    outer loop
      vertex 12.1667 -5 0
      vertex 10.7214 -2.62892 0
      vertex 10.8893 -2.71448 0
    endloop
  endfacet
  facet normal 0 0 -1
    outer loop
      vertex 12.1667 -5 0
      vertex 10.5592 -2.53298 0
      vertex 10.7214 -2.62892 0
    endloop
  endfacet
  facet normal 0 0 -1
    outer loop
      vertex 12.1667 -5 0
      vertex 10.4033 -2.42705 0
      vertex 10.5592 -2.53298 0
    endloop
  endfacet
  facet normal 0 0 -1
    outer loop
      vertex 12.1667 -5 0
      vertex 10.2544 -2.31154 0
      vertex 10.4033 -2.42705 0
    endloop
  endfacet
  facet normal 0 0 -1
    outer loop
      vertex 12.1667 -5 0
      vertex 10.113 -2.18691 0
      vertex 10.2544 -2.31154 0
    endloop
  endfacet
  facet normal 0 0 -1
    outer loop
      vertex 12.1667 -5 0
      vertex 9.97976 -2.05364 0
      vertex 10.113 -2.18691 0
    endloop
  endfacet
  facet normal 0 0 -1
    outer loop
      vertex -17.1667 -5 0
      vertex 9.97976 -2.05364 0
      vertex 12.1667 -5 0
    endloop
  endfacet
  facet normal -0 0 -1
    outer loop
      vertex 9.97976 -2.05364 0
      vertex -17.1667 -5 0
      vertex 9.85513 -1.91227 0
    endloop
  endfacet
  facet normal -0 0 -1
    outer loop
      vertex 9.17259 -0.188372 0
      vertex -17.1667 -5 0
      vertex 9.16667 0 0
    endloop
  endfacet
  facet normal -0 0 -1
    outer loop
      vertex 9.19032 -0.376 0
      vertex -17.1667 -5 0
      vertex 9.17259 -0.188372 0
    endloop
  endfacet
  facet normal -0 0 -1
    outer loop
      vertex 9.2198 -0.562144 0
      vertex -17.1667 -5 0
      vertex 9.19032 -0.376 0
    endloop
  endfacet
  facet normal -0 0 -1
    outer loop
      vertex 9.26092 -0.74607 0
      vertex -17.1667 -5 0
      vertex 9.2198 -0.562144 0
    endloop
  endfacet
  facet normal -0 0 -1
    outer loop
      vertex 9.3135 -0.927052 0
      vertex -17.1667 -5 0
      vertex 9.26092 -0.74607 0
    endloop
  endfacet
  facet normal -0 0 -1
    outer loop
      vertex 9.37734 -1.10437 0
      vertex -17.1667 -5 0
      vertex 9.3135 -0.927052 0
    endloop
  endfacet
  facet normal -0 0 -1
    outer loop
      vertex 9.45218 -1.27734 0
      vertex -17.1667 -5 0
      vertex 9.37734 -1.10437 0
    endloop
  endfacet
  facet normal -0 0 -1
    outer loop
      vertex 9.53775 -1.44526 0
      vertex -17.1667 -5 0
      vertex 9.45218 -1.27734 0
    endloop
  endfacet
  facet normal -0 0 -1
    outer loop
      vertex 9.63368 -1.60748 0
      vertex -17.1667 -5 0
      vertex 9.53775 -1.44526 0
    endloop
  endfacet
  facet normal -0 0 -1
    outer loop
      vertex 9.73961 -1.76336 0
      vertex -17.1667 -5 0
      vertex 9.63368 -1.60748 0
    endloop
  endfacet
  facet normal -0 0 -1
    outer loop
      vertex 9.85513 -1.91227 0
      vertex -17.1667 -5 0
      vertex 9.73961 -1.76336 0
    endloop
  endfacet
  facet normal -0 0 -1
    outer loop
      vertex 16.6908 2.1289 0
      vertex 14.8811 1.27734 0
      vertex 16.5482 2.40877 0
    endloop
  endfacet
  facet normal 0 0 -1
    outer loop
      vertex 14.7956 1.44526 0
      vertex 16.5482 2.40877 0
      vertex 14.8811 1.27734 0
    endloop
  endfacet
  facet normal -0 0 -1
    outer loop
      vertex 16.5482 2.40877 0
      vertex 14.7956 1.44526 0
      vertex 16.3883 2.67913 0
    endloop
  endfacet
  facet normal 0 0 -1
    outer loop
      vertex 14.6996 1.60748 0
      vertex 16.3883 2.67913 0
      vertex 14.7956 1.44526 0
    endloop
  endfacet
  facet normal -0 0 -1
    outer loop
      vertex 16.3883 2.67913 0
      vertex 14.6996 1.60748 0
      vertex 16.2118 2.93893 0
    endloop
  endfacet
  facet normal 0 0 -1
    outer loop
      vertex 14.5937 1.76336 0
      vertex 16.2118 2.93893 0
      vertex 14.6996 1.60748 0
    endloop
  endfacet
  facet normal -0 0 -1
    outer loop
      vertex 16.2118 2.93893 0
      vertex 14.5937 1.76336 0
      vertex 16.0192 3.18712 0
    endloop
  endfacet
  facet normal 0 0 -1
    outer loop
      vertex 14.4782 1.91227 0
      vertex 16.0192 3.18712 0
      vertex 14.5937 1.76336 0
    endloop
  endfacet
  facet normal -0 0 -1
    outer loop
      vertex 16.0192 3.18712 0
      vertex 14.4782 1.91227 0
      vertex 15.8115 3.42274 0
    endloop
  endfacet
  facet normal 0 0 -1
    outer loop
      vertex 14.3536 2.05364 0
      vertex 15.8115 3.42274 0
      vertex 14.4782 1.91227 0
    endloop
  endfacet
  facet normal -0 0 -1
    outer loop
      vertex 15.8115 3.42274 0
      vertex 14.3536 2.05364 0
      vertex 15.5894 3.64484 0
    endloop
  endfacet
  facet normal 0 0 -1
    outer loop
      vertex 14.2203 2.18691 0
      vertex 15.5894 3.64484 0
      vertex 14.3536 2.05364 0
    endloop
  endfacet
  facet normal -0 0 -1
    outer loop
      vertex 15.5894 3.64484 0
      vertex 14.2203 2.18691 0
      vertex 15.3538 3.85257 0
    endloop
  endfacet
  facet normal 0 0 -1
    outer loop
      vertex 14.0789 2.31154 0
      vertex 15.3538 3.85257 0
      vertex 14.2203 2.18691 0
    endloop
  endfacet
  facet normal -0 0 -1
    outer loop
      vertex 15.3538 3.85257 0
      vertex 14.0789 2.31154 0
      vertex 15.1056 4.04508 0
    endloop
  endfacet
  facet normal 0 0 -1
    outer loop
      vertex 13.93 2.42705 0
      vertex 15.1056 4.04508 0
      vertex 14.0789 2.31154 0
    endloop
  endfacet
  facet normal -0 0 -1
    outer loop
      vertex 15.1056 4.04508 0
      vertex 13.93 2.42705 0
      vertex 14.8458 4.22164 0
    endloop
  endfacet
  facet normal 0 0 -1
    outer loop
      vertex 13.7741 2.53298 0
      vertex 14.8458 4.22164 0
      vertex 13.93 2.42705 0
    endloop
  endfacet
  facet normal -0 0 -1
    outer loop
      vertex 14.8458 4.22164 0
      vertex 13.7741 2.53298 0
      vertex 14.5754 4.38153 0
    endloop
  endfacet
  facet normal 0 0 -1
    outer loop
      vertex 13.6119 2.62892 0
      vertex 14.5754 4.38153 0
      vertex 13.7741 2.53298 0
    endloop
  endfacet
  facet normal -0 0 -1
    outer loop
      vertex 14.5754 4.38153 0
      vertex 13.6119 2.62892 0
      vertex 14.2956 4.52413 0
    endloop
  endfacet
  facet normal 0 0 -1
    outer loop
      vertex 13.444 2.71448 0
      vertex 14.2956 4.52413 0
      vertex 13.6119 2.62892 0
    endloop
  endfacet
  facet normal -0 0 -1
    outer loop
      vertex 14.2956 4.52413 0
      vertex 13.444 2.71448 0
      vertex 14.0073 4.64888 0
    endloop
  endfacet
  facet normal 0 0 -1
    outer loop
      vertex 13.271 2.78933 0
      vertex 14.0073 4.64888 0
      vertex 13.444 2.71448 0
    endloop
  endfacet
  facet normal -0 0 -1
    outer loop
      vertex 14.0073 4.64888 0
      vertex 13.271 2.78933 0
      vertex 13.7118 4.75528 0
    endloop
  endfacet
  facet normal 0 0 -1
    outer loop
      vertex 13.0937 2.85317 0
      vertex 13.7118 4.75528 0
      vertex 13.271 2.78933 0
    endloop
  endfacet
  facet normal -0 0 -1
    outer loop
      vertex 13.7118 4.75528 0
      vertex 13.0937 2.85317 0
      vertex 13.4101 4.84292 0
    endloop
  endfacet
  facet normal 0 0 -1
    outer loop
      vertex 12.9127 2.90575 0
      vertex 13.4101 4.84292 0
      vertex 13.0937 2.85317 0
    endloop
  endfacet
  facet normal -0 0 -1
    outer loop
      vertex 13.4101 4.84292 0
      vertex 12.9127 2.90575 0
      vertex 13.1036 4.91144 0
    endloop
  endfacet
  facet normal 0 0 -1
    outer loop
      vertex 12.7288 2.94686 0
      vertex 13.1036 4.91144 0
      vertex 12.9127 2.90575 0
    endloop
  endfacet
  facet normal -0 0 -1
    outer loop
      vertex 13.1036 4.91144 0
      vertex 12.7288 2.94686 0
      vertex 12.7933 4.96057 0
    endloop
  endfacet
  facet normal 0 0 -1
    outer loop
      vertex 12.5427 2.97634 0
      vertex 12.7933 4.96057 0
      vertex 12.7288 2.94686 0
    endloop
  endfacet
  facet normal 0 0 -1
    outer loop
      vertex 12.5427 2.97634 0
      vertex 12.4806 4.99013 0
      vertex 12.7933 4.96057 0
    endloop
  endfacet
  facet normal 0 0 -1
    outer loop
      vertex 12.355 2.99408 0
      vertex 12.4806 4.99013 0
      vertex 12.5427 2.97634 0
    endloop
  endfacet
  facet normal 0 0 -1
    outer loop
      vertex 12.1667 3 0
      vertex 12.4806 4.99013 0
      vertex 12.355 2.99408 0
    endloop
  endfacet
  facet normal 0 0 -1
    outer loop
      vertex 12.1667 3 0
      vertex 12.1667 5 0
      vertex 12.4806 4.99013 0
    endloop
  endfacet
  facet normal 0 0 -1
    outer loop
      vertex 11.9783 2.99408 0
      vertex 12.1667 5 0
      vertex 12.1667 3 0
    endloop
  endfacet
  facet normal 0 0 -1
    outer loop
      vertex 11.7907 2.97634 0
      vertex 12.1667 5 0
      vertex 11.9783 2.99408 0
    endloop
  endfacet
  facet normal 0 0 -1
    outer loop
      vertex 11.6045 2.94686 0
      vertex 12.1667 5 0
      vertex 11.7907 2.97634 0
    endloop
  endfacet
  facet normal 0 0 -1
    outer loop
      vertex 11.4206 2.90575 0
      vertex 12.1667 5 0
      vertex 11.6045 2.94686 0
    endloop
  endfacet
  facet normal 0 0 -1
    outer loop
      vertex 11.2396 2.85317 0
      vertex 12.1667 5 0
      vertex 11.4206 2.90575 0
    endloop
  endfacet
  facet normal 0 0 -1
    outer loop
      vertex 11.0623 2.78933 0
      vertex 12.1667 5 0
      vertex 11.2396 2.85317 0
    endloop
  endfacet
  facet normal 0 0 -1
    outer loop
      vertex 10.8893 2.71448 0
      vertex 12.1667 5 0
      vertex 11.0623 2.78933 0
    endloop
  endfacet
  facet normal 0 0 -1
    outer loop
      vertex 10.7214 2.62892 0
      vertex 12.1667 5 0
      vertex 10.8893 2.71448 0
    endloop
  endfacet
  facet normal 0 0 -1
    outer loop
      vertex 10.5592 2.53298 0
      vertex 12.1667 5 0
      vertex 10.7214 2.62892 0
    endloop
  endfacet
  facet normal 0 0 -1
    outer loop
      vertex 10.4033 2.42705 0
      vertex 12.1667 5 0
      vertex 10.5592 2.53298 0
    endloop
  endfacet
  facet normal 0 0 -1
    outer loop
      vertex 10.2544 2.31154 0
      vertex 12.1667 5 0
      vertex 10.4033 2.42705 0
    endloop
  endfacet
  facet normal 0 0 -1
    outer loop
      vertex 10.113 2.18691 0
      vertex 12.1667 5 0
      vertex 10.2544 2.31154 0
    endloop
  endfacet
  facet normal 0 0 -1
    outer loop
      vertex 9.97976 2.05364 0
      vertex 12.1667 5 0
      vertex 10.113 2.18691 0
    endloop
  endfacet
  facet normal 0 0 -1
    outer loop
      vertex -17.1667 5 0
      vertex 9.97976 2.05364 0
      vertex 9.85513 1.91227 0
    endloop
  endfacet
  facet normal 0 0 -1
    outer loop
      vertex -17.1667 5 0
      vertex 9.85513 1.91227 0
      vertex 9.73961 1.76336 0
    endloop
  endfacet
  facet normal 0 0 -1
    outer loop
      vertex -17.1667 5 0
      vertex 9.16667 0 0
      vertex -17.1667 -5 0
    endloop
  endfacet
  facet normal 0 0 -1
    outer loop
      vertex 9.16667 0 0
      vertex -17.1667 5 0
      vertex 9.17259 0.188371 0
    endloop
  endfacet
  facet normal 0 0 -1
    outer loop
      vertex 9.17259 0.188371 0
      vertex -17.1667 5 0
      vertex 9.19032 0.375999 0
    endloop
  endfacet
  facet normal 0 0 -1
    outer loop
      vertex 9.19032 0.375999 0
      vertex -17.1667 5 0
      vertex 9.2198 0.562143 0
    endloop
  endfacet
  facet normal 0 0 -1
    outer loop
      vertex 9.2198 0.562143 0
      vertex -17.1667 5 0
      vertex 9.26092 0.746069 0
    endloop
  endfacet
  facet normal 0 0 -1
    outer loop
      vertex 9.26092 0.746069 0
      vertex -17.1667 5 0
      vertex 9.3135 0.927051 0
    endloop
  endfacet
  facet normal 0 0 -1
    outer loop
      vertex 9.3135 0.927051 0
      vertex -17.1667 5 0
      vertex 9.37734 1.10437 0
    endloop
  endfacet
  facet normal 0 0 -1
    outer loop
      vertex 9.37734 1.10437 0
      vertex -17.1667 5 0
      vertex 9.45218 1.27734 0
    endloop
  endfacet
  facet normal 0 0 -1
    outer loop
      vertex 9.45218 1.27734 0
      vertex -17.1667 5 0
      vertex 9.53775 1.44526 0
    endloop
  endfacet
  facet normal 0 0 -1
    outer loop
      vertex 9.53775 1.44526 0
      vertex -17.1667 5 0
      vertex 9.63368 1.60748 0
    endloop
  endfacet
  facet normal 0 0 -1
    outer loop
      vertex 9.63368 1.60748 0
      vertex -17.1667 5 0
      vertex 9.73961 1.76336 0
    endloop
  endfacet
  facet normal 0 0 -1
    outer loop
      vertex 9.97976 2.05364 0
      vertex -17.1667 5 0
      vertex 12.1667 5 0
    endloop
  endfacet
  facet normal 0 -1 0
    outer loop
      vertex -17.1667 -5 0
      vertex 12.1667 -5 2
      vertex -17.1667 -5 2
    endloop
  endfacet
  facet normal 0 -1 -0
    outer loop
      vertex 12.1667 -5 2
      vertex -17.1667 -5 0
      vertex 12.1667 -5 0
    endloop
  endfacet
  facet normal 0.975917 0.21814 0
    outer loop
      vertex 17.0781 0.936906 2
      vertex 17.0096 1.24345 0
      vertex 17.0096 1.24345 2
    endloop
  endfacet
  facet normal 0.975917 0.21814 0
    outer loop
      vertex 17.0096 1.24345 0
      vertex 17.0781 0.936906 2
      vertex 17.0781 0.936906 0
    endloop
  endfacet
  facet normal 0.960294 0.278991 0
    outer loop
      vertex 17.0096 1.24345 2
      vertex 16.9219 1.54508 0
      vertex 16.9219 1.54508 2
    endloop
  endfacet
  facet normal 0.960294 0.278991 0
    outer loop
      vertex 16.9219 1.54508 0
      vertex 17.0096 1.24345 2
      vertex 17.0096 1.24345 0
    endloop
  endfacet
  facet normal 0.790153 0.61291 0
    outer loop
      vertex 16.2118 2.93893 2
      vertex 16.0192 3.18712 0
      vertex 16.0192 3.18712 2
    endloop
  endfacet
  facet normal 0.790153 0.61291 0
    outer loop
      vertex 16.0192 3.18712 0
      vertex 16.2118 2.93893 2
      vertex 16.2118 2.93893 0
    endloop
  endfacet
  facet normal 0.453991 0.891006 -0
    outer loop
      vertex 14.5754 4.38153 0
      vertex 14.2956 4.52413 2
      vertex 14.5754 4.38153 2
    endloop
  endfacet
  facet normal 0.453991 0.891006 0
    outer loop
      vertex 14.2956 4.52413 2
      vertex 14.5754 4.38153 0
      vertex 14.2956 4.52413 0
    endloop
  endfacet
  facet normal 0.278991 -0.960294 0
    outer loop
      vertex 13.4101 -4.84292 0
      vertex 13.7118 -4.75528 2
      vertex 13.4101 -4.84292 2
    endloop
  endfacet
  facet normal 0.278991 -0.960294 0
    outer loop
      vertex 13.7118 -4.75528 2
      vertex 13.4101 -4.84292 0
      vertex 13.7118 -4.75528 0
    endloop
  endfacet
  facet normal 0.707107 -0.707107 0
    outer loop
      vertex 15.5894 -3.64484 2
      vertex 15.8115 -3.42274 0
      vertex 15.8115 -3.42274 2
    endloop
  endfacet
  facet normal 0.707107 -0.707107 0
    outer loop
      vertex 15.8115 -3.42274 0
      vertex 15.5894 -3.64484 2
      vertex 15.5894 -3.64484 0
    endloop
  endfacet
  facet normal 0.891008 0.453988 0
    outer loop
      vertex 16.6908 2.1289 2
      vertex 16.5482 2.40877 0
      vertex 16.5482 2.40877 2
    endloop
  endfacet
  facet normal 0.891008 0.453988 0
    outer loop
      vertex 16.5482 2.40877 0
      vertex 16.6908 2.1289 2
      vertex 16.6908 2.1289 0
    endloop
  endfacet
  facet normal 0.707107 0.707107 0
    outer loop
      vertex 15.8115 3.42274 2
      vertex 15.5894 3.64484 0
      vertex 15.5894 3.64484 2
    endloop
  endfacet
  facet normal 0.707107 0.707107 0
    outer loop
      vertex 15.5894 3.64484 0
      vertex 15.8115 3.42274 2
      vertex 15.8115 3.42274 0
    endloop
  endfacet
  facet normal 0.562081 0.827082 -0
    outer loop
      vertex 15.1056 4.04508 0
      vertex 14.8458 4.22164 2
      vertex 15.1056 4.04508 2
    endloop
  endfacet
  facet normal 0.562081 0.827082 0
    outer loop
      vertex 14.8458 4.22164 2
      vertex 15.1056 4.04508 0
      vertex 14.8458 4.22164 0
    endloop
  endfacet
  facet normal 0.156434 0.987688 -0
    outer loop
      vertex 13.1036 4.91144 0
      vertex 12.7933 4.96057 2
      vertex 13.1036 4.91144 2
    endloop
  endfacet
  facet normal 0.156434 0.987688 0
    outer loop
      vertex 12.7933 4.96057 2
      vertex 13.1036 4.91144 0
      vertex 12.7933 4.96057 0
    endloop
  endfacet
  facet normal 0.0314119 0.999507 -0
    outer loop
      vertex 12.4806 4.99013 0
      vertex 12.1667 5 2
      vertex 12.4806 4.99013 2
    endloop
  endfacet
  facet normal 0.0314119 0.999507 0
    outer loop
      vertex 12.1667 5 2
      vertex 12.4806 4.99013 0
      vertex 12.1667 5 0
    endloop
  endfacet
  facet normal 0.999507 0.0314119 0
    outer loop
      vertex 17.1667 0 2
      vertex 17.1568 0.313952 0
      vertex 17.1568 0.313952 2
    endloop
  endfacet
  facet normal 0.999507 0.0314119 0
    outer loop
      vertex 17.1568 0.313952 0
      vertex 17.1667 0 2
      vertex 17.1667 0 0
    endloop
  endfacet
  facet normal 0.218144 -0.975917 0
    outer loop
      vertex 13.1036 -4.91144 0
      vertex 13.4101 -4.84292 2
      vertex 13.1036 -4.91144 2
    endloop
  endfacet
  facet normal 0.218144 -0.975917 0
    outer loop
      vertex 13.4101 -4.84292 2
      vertex 13.1036 -4.91144 0
      vertex 13.4101 -4.84292 0
    endloop
  endfacet
  facet normal 0.453991 -0.891006 0
    outer loop
      vertex 14.2956 -4.52414 0
      vertex 14.5754 -4.38153 2
      vertex 14.2956 -4.52414 2
    endloop
  endfacet
  facet normal 0.453991 -0.891006 0
    outer loop
      vertex 14.5754 -4.38153 2
      vertex 14.2956 -4.52414 0
      vertex 14.5754 -4.38153 0
    endloop
  endfacet
  facet normal 0.995562 0.0941082 0
    outer loop
      vertex 17.1568 0.313952 2
      vertex 17.1272 0.626666 0
      vertex 17.1272 0.626666 2
    endloop
  endfacet
  facet normal 0.995562 0.0941082 0
    outer loop
      vertex 17.1272 0.626666 0
      vertex 17.1568 0.313952 2
      vertex 17.1568 0.313952 0
    endloop
  endfacet
  facet normal 0.987688 0.156434 0
    outer loop
      vertex 17.1272 0.626666 2
      vertex 17.0781 0.936906 0
      vertex 17.0781 0.936906 2
    endloop
  endfacet
  facet normal 0.987688 0.156434 0
    outer loop
      vertex 17.0781 0.936906 0
      vertex 17.1272 0.626666 2
      vertex 17.1272 0.626666 0
    endloop
  endfacet
  facet normal 0.917756 0.397145 0
    outer loop
      vertex 16.8155 1.84062 2
      vertex 16.6908 2.1289 0
      vertex 16.6908 2.1289 2
    endloop
  endfacet
  facet normal 0.917756 0.397145 0
    outer loop
      vertex 16.6908 2.1289 0
      vertex 16.8155 1.84062 2
      vertex 16.8155 1.84062 0
    endloop
  endfacet
  facet normal 0.86074 0.509044 0
    outer loop
      vertex 16.5482 2.40877 2
      vertex 16.3883 2.67913 0
      vertex 16.3883 2.67913 2
    endloop
  endfacet
  facet normal 0.86074 0.509044 0
    outer loop
      vertex 16.3883 2.67913 0
      vertex 16.5482 2.40877 2
      vertex 16.5482 2.40877 0
    endloop
  endfacet
  facet normal 0.827082 0.562081 0
    outer loop
      vertex 16.3883 2.67913 2
      vertex 16.2118 2.93893 0
      vertex 16.2118 2.93893 2
    endloop
  endfacet
  facet normal 0.827082 0.562081 0
    outer loop
      vertex 16.2118 2.93893 0
      vertex 16.3883 2.67913 2
      vertex 16.3883 2.67913 0
    endloop
  endfacet
  facet normal 0.750112 0.661311 0
    outer loop
      vertex 16.0192 3.18712 2
      vertex 15.8115 3.42274 0
      vertex 15.8115 3.42274 2
    endloop
  endfacet
  facet normal 0.750112 0.661311 0
    outer loop
      vertex 15.8115 3.42274 0
      vertex 16.0192 3.18712 2
      vertex 16.0192 3.18712 0
    endloop
  endfacet
  facet normal 0.661311 0.750112 -0
    outer loop
      vertex 15.5894 3.64484 0
      vertex 15.3538 3.85257 2
      vertex 15.5894 3.64484 2
    endloop
  endfacet
  facet normal 0.661311 0.750112 0
    outer loop
      vertex 15.3538 3.85257 2
      vertex 15.5894 3.64484 0
      vertex 15.3538 3.85257 0
    endloop
  endfacet
  facet normal 0.509043 0.860741 -0
    outer loop
      vertex 14.8458 4.22164 0
      vertex 14.5754 4.38153 2
      vertex 14.8458 4.22164 2
    endloop
  endfacet
  facet normal 0.509043 0.860741 0
    outer loop
      vertex 14.5754 4.38153 2
      vertex 14.8458 4.22164 0
      vertex 14.5754 4.38153 0
    endloop
  endfacet
  facet normal 0.612908 0.790154 -0
    outer loop
      vertex 15.3538 3.85257 0
      vertex 15.1056 4.04508 2
      vertex 15.3538 3.85257 2
    endloop
  endfacet
  facet normal 0.612908 0.790154 0
    outer loop
      vertex 15.1056 4.04508 2
      vertex 15.3538 3.85257 0
      vertex 15.1056 4.04508 0
    endloop
  endfacet
  facet normal 0.338739 0.94088 -0
    outer loop
      vertex 14.0073 4.64888 0
      vertex 13.7118 4.75528 2
      vertex 14.0073 4.64888 2
    endloop
  endfacet
  facet normal 0.338739 0.94088 0
    outer loop
      vertex 13.7118 4.75528 2
      vertex 14.0073 4.64888 0
      vertex 13.7118 4.75528 0
    endloop
  endfacet
  facet normal 0.218144 0.975917 -0
    outer loop
      vertex 13.4101 4.84292 0
      vertex 13.1036 4.91144 2
      vertex 13.4101 4.84292 2
    endloop
  endfacet
  facet normal 0.218144 0.975917 0
    outer loop
      vertex 13.1036 4.91144 2
      vertex 13.4101 4.84292 0
      vertex 13.1036 4.91144 0
    endloop
  endfacet
  facet normal 0.0941082 0.995562 -0
    outer loop
      vertex 12.7933 4.96057 0
      vertex 12.4806 4.99013 2
      vertex 12.7933 4.96057 2
    endloop
  endfacet
  facet normal 0.0941082 0.995562 0
    outer loop
      vertex 12.4806 4.99013 2
      vertex 12.7933 4.96057 0
      vertex 12.4806 4.99013 0
    endloop
  endfacet
  facet normal 0.995562 -0.0941082 0
    outer loop
      vertex 17.1272 -0.626667 2
      vertex 17.1568 -0.313953 0
      vertex 17.1568 -0.313953 2
    endloop
  endfacet
  facet normal 0.995562 -0.0941082 0
    outer loop
      vertex 17.1568 -0.313953 0
      vertex 17.1272 -0.626667 2
      vertex 17.1272 -0.626667 0
    endloop
  endfacet
  facet normal 0.0941082 -0.995562 0
    outer loop
      vertex 12.4806 -4.99013 0
      vertex 12.7933 -4.96057 2
      vertex 12.4806 -4.99013 2
    endloop
  endfacet
  facet normal 0.0941082 -0.995562 0
    outer loop
      vertex 12.7933 -4.96057 2
      vertex 12.4806 -4.99013 0
      vertex 12.7933 -4.96057 0
    endloop
  endfacet
  facet normal 0.987688 -0.156434 0
    outer loop
      vertex 17.0781 -0.936907 2
      vertex 17.1272 -0.626667 0
      vertex 17.1272 -0.626667 2
    endloop
  endfacet
  facet normal 0.987688 -0.156434 0
    outer loop
      vertex 17.1272 -0.626667 0
      vertex 17.0781 -0.936907 2
      vertex 17.0781 -0.936907 0
    endloop
  endfacet
  facet normal 0.999507 -0.0314118 0
    outer loop
      vertex 17.1568 -0.313953 2
      vertex 17.1667 0 0
      vertex 17.1667 0 2
    endloop
  endfacet
  facet normal 0.999507 -0.0314118 0
    outer loop
      vertex 17.1667 0 0
      vertex 17.1568 -0.313953 2
      vertex 17.1568 -0.313953 0
    endloop
  endfacet
  facet normal 0.960294 -0.278991 0
    outer loop
      vertex 16.9219 -1.54509 2
      vertex 17.0096 -1.24345 0
      vertex 17.0096 -1.24345 2
    endloop
  endfacet
  facet normal 0.960294 -0.278991 0
    outer loop
      vertex 17.0096 -1.24345 0
      vertex 16.9219 -1.54509 2
      vertex 16.9219 -1.54509 0
    endloop
  endfacet
  facet normal 0.827082 -0.562081 0
    outer loop
      vertex 16.2118 -2.93893 2
      vertex 16.3883 -2.67913 0
      vertex 16.3883 -2.67913 2
    endloop
  endfacet
  facet normal 0.827082 -0.562081 0
    outer loop
      vertex 16.3883 -2.67913 0
      vertex 16.2118 -2.93893 2
      vertex 16.2118 -2.93893 0
    endloop
  endfacet
  facet normal 0.156434 -0.987688 0
    outer loop
      vertex 12.7933 -4.96057 0
      vertex 13.1036 -4.91144 2
      vertex 12.7933 -4.96057 2
    endloop
  endfacet
  facet normal 0.156434 -0.987688 0
    outer loop
      vertex 13.1036 -4.91144 2
      vertex 12.7933 -4.96057 0
      vertex 13.1036 -4.91144 0
    endloop
  endfacet
  facet normal 0.338739 -0.94088 0
    outer loop
      vertex 13.7118 -4.75528 0
      vertex 14.0073 -4.64888 2
      vertex 13.7118 -4.75528 2
    endloop
  endfacet
  facet normal 0.338739 -0.94088 0
    outer loop
      vertex 14.0073 -4.64888 2
      vertex 13.7118 -4.75528 0
      vertex 14.0073 -4.64888 0
    endloop
  endfacet
  facet normal 0.397148 -0.917755 0
    outer loop
      vertex 14.0073 -4.64888 0
      vertex 14.2956 -4.52414 2
      vertex 14.0073 -4.64888 2
    endloop
  endfacet
  facet normal 0.397148 -0.917755 0
    outer loop
      vertex 14.2956 -4.52414 2
      vertex 14.0073 -4.64888 0
      vertex 14.2956 -4.52414 0
    endloop
  endfacet
  facet normal 0.612908 -0.790154 0
    outer loop
      vertex 15.1056 -4.04509 0
      vertex 15.3538 -3.85257 2
      vertex 15.1056 -4.04509 2
    endloop
  endfacet
  facet normal 0.612908 -0.790154 0
    outer loop
      vertex 15.3538 -3.85257 2
      vertex 15.1056 -4.04509 0
      vertex 15.3538 -3.85257 0
    endloop
  endfacet
  facet normal 0.509043 -0.860741 0
    outer loop
      vertex 14.5754 -4.38153 0
      vertex 14.8458 -4.22164 2
      vertex 14.5754 -4.38153 2
    endloop
  endfacet
  facet normal 0.509043 -0.860741 0
    outer loop
      vertex 14.8458 -4.22164 2
      vertex 14.5754 -4.38153 0
      vertex 14.8458 -4.22164 0
    endloop
  endfacet
  facet normal 0.0314089 -0.999507 0
    outer loop
      vertex 12.1667 -5 0
      vertex 12.4806 -4.99013 2
      vertex 12.1667 -5 2
    endloop
  endfacet
  facet normal 0.0314089 -0.999507 0
    outer loop
      vertex 12.4806 -4.99013 2
      vertex 12.1667 -5 0
      vertex 12.4806 -4.99013 0
    endloop
  endfacet
  facet normal 0.940879 0.338742 0
    outer loop
      vertex 16.9219 1.54508 2
      vertex 16.8155 1.84062 0
      vertex 16.8155 1.84062 2
    endloop
  endfacet
  facet normal 0.940879 0.338742 0
    outer loop
      vertex 16.8155 1.84062 0
      vertex 16.9219 1.54508 2
      vertex 16.9219 1.54508 0
    endloop
  endfacet
  facet normal 0.397148 0.917755 -0
    outer loop
      vertex 14.2956 4.52413 0
      vertex 14.0073 4.64888 2
      vertex 14.2956 4.52413 2
    endloop
  endfacet
  facet normal 0.397148 0.917755 0
    outer loop
      vertex 14.0073 4.64888 2
      vertex 14.2956 4.52413 0
      vertex 14.0073 4.64888 0
    endloop
  endfacet
  facet normal 0.278991 0.960294 -0
    outer loop
      vertex 13.7118 4.75528 0
      vertex 13.4101 4.84292 2
      vertex 13.7118 4.75528 2
    endloop
  endfacet
  facet normal 0.278991 0.960294 0
    outer loop
      vertex 13.4101 4.84292 2
      vertex 13.7118 4.75528 0
      vertex 13.4101 4.84292 0
    endloop
  endfacet
  facet normal 0.940879 -0.338742 0
    outer loop
      vertex 16.8155 -1.84062 2
      vertex 16.9219 -1.54509 0
      vertex 16.9219 -1.54509 2
    endloop
  endfacet
  facet normal 0.940879 -0.338742 0
    outer loop
      vertex 16.9219 -1.54509 0
      vertex 16.8155 -1.84062 2
      vertex 16.8155 -1.84062 0
    endloop
  endfacet
  facet normal 0.750112 -0.661311 0
    outer loop
      vertex 15.8115 -3.42274 2
      vertex 16.0192 -3.18712 0
      vertex 16.0192 -3.18712 2
    endloop
  endfacet
  facet normal 0.750112 -0.661311 0
    outer loop
      vertex 16.0192 -3.18712 0
      vertex 15.8115 -3.42274 2
      vertex 15.8115 -3.42274 0
    endloop
  endfacet
  facet normal 0.661311 -0.750112 0
    outer loop
      vertex 15.3538 -3.85257 0
      vertex 15.5894 -3.64484 2
      vertex 15.3538 -3.85257 2
    endloop
  endfacet
  facet normal 0.661311 -0.750112 0
    outer loop
      vertex 15.5894 -3.64484 2
      vertex 15.3538 -3.85257 0
      vertex 15.5894 -3.64484 0
    endloop
  endfacet
  facet normal 0.562081 -0.827082 0
    outer loop
      vertex 14.8458 -4.22164 0
      vertex 15.1056 -4.04509 2
      vertex 14.8458 -4.22164 2
    endloop
  endfacet
  facet normal 0.562081 -0.827082 0
    outer loop
      vertex 15.1056 -4.04509 2
      vertex 14.8458 -4.22164 0
      vertex 15.1056 -4.04509 0
    endloop
  endfacet
  facet normal 0.975917 -0.21814 0
    outer loop
      vertex 17.0096 -1.24345 2
      vertex 17.0781 -0.936907 0
      vertex 17.0781 -0.936907 2
    endloop
  endfacet
  facet normal 0.975917 -0.21814 0
    outer loop
      vertex 17.0781 -0.936907 0
      vertex 17.0096 -1.24345 2
      vertex 17.0096 -1.24345 0
    endloop
  endfacet
  facet normal 0.891008 -0.453988 0
    outer loop
      vertex 16.5482 -2.40877 2
      vertex 16.6908 -2.1289 0
      vertex 16.6908 -2.1289 2
    endloop
  endfacet
  facet normal 0.891008 -0.453988 0
    outer loop
      vertex 16.6908 -2.1289 0
      vertex 16.5482 -2.40877 2
      vertex 16.5482 -2.40877 0
    endloop
  endfacet
  facet normal 0.790153 -0.61291 0
    outer loop
      vertex 16.0192 -3.18712 2
      vertex 16.2118 -2.93893 0
      vertex 16.2118 -2.93893 2
    endloop
  endfacet
  facet normal 0.790153 -0.61291 0
    outer loop
      vertex 16.2118 -2.93893 0
      vertex 16.0192 -3.18712 2
      vertex 16.0192 -3.18712 0
    endloop
  endfacet
  facet normal 0.86074 -0.509044 0
    outer loop
      vertex 16.3883 -2.67913 2
      vertex 16.5482 -2.40877 0
      vertex 16.5482 -2.40877 2
    endloop
  endfacet
  facet normal 0.86074 -0.509044 0
    outer loop
      vertex 16.5482 -2.40877 0
      vertex 16.3883 -2.67913 2
      vertex 16.3883 -2.67913 0
    endloop
  endfacet
  facet normal 0.917756 -0.397145 0
    outer loop
      vertex 16.6908 -2.1289 2
      vertex 16.8155 -1.84062 0
      vertex 16.8155 -1.84062 2
    endloop
  endfacet
  facet normal 0.917756 -0.397145 0
    outer loop
      vertex 16.8155 -1.84062 0
      vertex 16.6908 -2.1289 2
      vertex 16.6908 -2.1289 0
    endloop
  endfacet
  facet normal -0.999506 -0.0314141 0
    outer loop
      vertex 15.1667 0 0
      vertex 15.1607 0.188371 2
      vertex 15.1607 0.188371 0
    endloop
  endfacet
  facet normal -0.999506 -0.0314141 0
    outer loop
      vertex 15.1607 0.188371 2
      vertex 15.1667 0 0
      vertex 15.1667 0 2
    endloop
  endfacet
  facet normal 0.0314139 -0.999506 0
    outer loop
      vertex 11.9783 2.99408 0
      vertex 12.1667 3 2
      vertex 11.9783 2.99408 2
    endloop
  endfacet
  facet normal 0.0314139 -0.999506 0
    outer loop
      vertex 12.1667 3 2
      vertex 11.9783 2.99408 0
      vertex 12.1667 3 0
    endloop
  endfacet
  facet normal 0.661313 0.75011 -0
    outer loop
      vertex 10.2544 -2.31154 0
      vertex 10.113 -2.18691 2
      vertex 10.2544 -2.31154 2
    endloop
  endfacet
  facet normal 0.661313 0.75011 0
    outer loop
      vertex 10.113 -2.18691 2
      vertex 10.2544 -2.31154 0
      vertex 10.113 -2.18691 0
    endloop
  endfacet
  facet normal -0.707109 -0.707104 0
    outer loop
      vertex 14.3536 2.05364 0
      vertex 14.2203 2.18691 2
      vertex 14.2203 2.18691 0
    endloop
  endfacet
  facet normal -0.707109 -0.707104 0
    outer loop
      vertex 14.2203 2.18691 2
      vertex 14.3536 2.05364 0
      vertex 14.3536 2.05364 2
    endloop
  endfacet
  facet normal 0.75011 -0.661313 0
    outer loop
      vertex 9.85513 1.91227 2
      vertex 9.97976 2.05364 0
      vertex 9.97976 2.05364 2
    endloop
  endfacet
  facet normal 0.75011 -0.661313 0
    outer loop
      vertex 9.97976 2.05364 0
      vertex 9.85513 1.91227 2
      vertex 9.85513 1.91227 0
    endloop
  endfacet
  facet normal 0.45399 -0.891007 0
    outer loop
      vertex 10.7214 2.62892 0
      vertex 10.8893 2.71448 2
      vertex 10.7214 2.62892 2
    endloop
  endfacet
  facet normal 0.45399 -0.891007 0
    outer loop
      vertex 10.8893 2.71448 2
      vertex 10.7214 2.62892 0
      vertex 10.8893 2.71448 0
    endloop
  endfacet
  facet normal -0.917755 -0.397148 0
    outer loop
      vertex 14.956 1.10437 0
      vertex 14.8811 1.27734 2
      vertex 14.8811 1.27734 0
    endloop
  endfacet
  facet normal -0.917755 -0.397148 0
    outer loop
      vertex 14.8811 1.27734 2
      vertex 14.956 1.10437 0
      vertex 14.956 1.10437 2
    endloop
  endfacet
  facet normal -0.33874 -0.94088 0
    outer loop
      vertex 13.0937 2.85317 0
      vertex 13.271 2.78933 2
      vertex 13.0937 2.85317 2
    endloop
  endfacet
  facet normal -0.33874 -0.94088 -0
    outer loop
      vertex 13.271 2.78933 2
      vertex 13.0937 2.85317 0
      vertex 13.271 2.78933 0
    endloop
  endfacet
  facet normal -0.509044 -0.86074 0
    outer loop
      vertex 13.6119 2.62892 0
      vertex 13.7741 2.53298 2
      vertex 13.6119 2.62892 2
    endloop
  endfacet
  facet normal -0.509044 -0.86074 -0
    outer loop
      vertex 13.7741 2.53298 2
      vertex 13.6119 2.62892 0
      vertex 13.7741 2.53298 0
    endloop
  endfacet
  facet normal 0.940881 -0.338738 0
    outer loop
      vertex 9.3135 0.927051 2
      vertex 9.37734 1.10437 0
      vertex 9.37734 1.10437 2
    endloop
  endfacet
  facet normal 0.940881 -0.338738 0
    outer loop
      vertex 9.37734 1.10437 0
      vertex 9.3135 0.927051 2
      vertex 9.3135 0.927051 0
    endloop
  endfacet
  facet normal 0.27899 -0.960294 0
    outer loop
      vertex 11.2396 2.85317 0
      vertex 11.4206 2.90575 2
      vertex 11.2396 2.85317 2
    endloop
  endfacet
  facet normal 0.27899 -0.960294 0
    outer loop
      vertex 11.4206 2.90575 2
      vertex 11.2396 2.85317 0
      vertex 11.4206 2.90575 0
    endloop
  endfacet
  facet normal 0.960294 0.27899 0
    outer loop
      vertex 9.3135 -0.927052 2
      vertex 9.26092 -0.74607 0
      vertex 9.26092 -0.74607 2
    endloop
  endfacet
  facet normal 0.960294 0.27899 0
    outer loop
      vertex 9.26092 -0.74607 0
      vertex 9.3135 -0.927052 2
      vertex 9.3135 -0.927052 0
    endloop
  endfacet
  facet normal -0.975917 -0.218142 0
    outer loop
      vertex 15.1135 0.562143 0
      vertex 15.0724 0.746069 2
      vertex 15.0724 0.746069 0
    endloop
  endfacet
  facet normal -0.975917 -0.218142 0
    outer loop
      vertex 15.0724 0.746069 2
      vertex 15.1135 0.562143 0
      vertex 15.1135 0.562143 2
    endloop
  endfacet
  facet normal -0.995562 -0.0941049 0
    outer loop
      vertex 15.1607 0.188371 0
      vertex 15.143 0.375999 2
      vertex 15.143 0.375999 0
    endloop
  endfacet
  facet normal -0.995562 -0.0941049 0
    outer loop
      vertex 15.143 0.375999 2
      vertex 15.1607 0.188371 0
      vertex 15.1607 0.188371 2
    endloop
  endfacet
  facet normal -0.960294 -0.27899 0
    outer loop
      vertex 15.0724 0.746069 0
      vertex 15.0198 0.927051 2
      vertex 15.0198 0.927051 0
    endloop
  endfacet
  facet normal -0.960294 -0.27899 0
    outer loop
      vertex 15.0198 0.927051 2
      vertex 15.0724 0.746069 0
      vertex 15.0724 0.746069 2
    endloop
  endfacet
  facet normal -0.827079 -0.562085 0
    outer loop
      vertex 14.6996 1.60748 0
      vertex 14.5937 1.76336 2
      vertex 14.5937 1.76336 0
    endloop
  endfacet
  facet normal -0.827079 -0.562085 0
    outer loop
      vertex 14.5937 1.76336 2
      vertex 14.6996 1.60748 0
      vertex 14.6996 1.60748 2
    endloop
  endfacet
  facet normal -0.790156 -0.612906 0
    outer loop
      vertex 14.5937 1.76336 0
      vertex 14.4782 1.91227 2
      vertex 14.4782 1.91227 0
    endloop
  endfacet
  facet normal -0.790156 -0.612906 0
    outer loop
      vertex 14.4782 1.91227 2
      vertex 14.5937 1.76336 0
      vertex 14.5937 1.76336 2
    endloop
  endfacet
  facet normal -0.860743 -0.50904 0
    outer loop
      vertex 14.7956 1.44526 0
      vertex 14.6996 1.60748 2
      vertex 14.6996 1.60748 0
    endloop
  endfacet
  facet normal -0.860743 -0.50904 0
    outer loop
      vertex 14.6996 1.60748 2
      vertex 14.7956 1.44526 0
      vertex 14.7956 1.44526 2
    endloop
  endfacet
  facet normal -0.156432 -0.987689 0
    outer loop
      vertex 12.5427 2.97634 0
      vertex 12.7288 2.94686 2
      vertex 12.5427 2.97634 2
    endloop
  endfacet
  facet normal -0.156432 -0.987689 -0
    outer loop
      vertex 12.7288 2.94686 2
      vertex 12.5427 2.97634 0
      vertex 12.7288 2.94686 0
    endloop
  endfacet
  facet normal -0.278992 -0.960293 0
    outer loop
      vertex 12.9127 2.90575 0
      vertex 13.0937 2.85317 2
      vertex 12.9127 2.90575 2
    endloop
  endfacet
  facet normal -0.278992 -0.960293 -0
    outer loop
      vertex 13.0937 2.85317 2
      vertex 12.9127 2.90575 0
      vertex 13.0937 2.85317 0
    endloop
  endfacet
  facet normal -0.45399 -0.891007 0
    outer loop
      vertex 13.444 2.71448 0
      vertex 13.6119 2.62892 2
      vertex 13.444 2.71448 2
    endloop
  endfacet
  facet normal -0.45399 -0.891007 -0
    outer loop
      vertex 13.6119 2.62892 2
      vertex 13.444 2.71448 0
      vertex 13.6119 2.62892 0
    endloop
  endfacet
  facet normal -0.612906 -0.790156 0
    outer loop
      vertex 13.93 2.42705 0
      vertex 14.0789 2.31154 2
      vertex 13.93 2.42705 2
    endloop
  endfacet
  facet normal -0.612906 -0.790156 -0
    outer loop
      vertex 14.0789 2.31154 2
      vertex 13.93 2.42705 0
      vertex 14.0789 2.31154 0
    endloop
  endfacet
  facet normal 0.987689 -0.156432 0
    outer loop
      vertex 9.19032 0.375999 2
      vertex 9.2198 0.562143 0
      vertex 9.2198 0.562143 2
    endloop
  endfacet
  facet normal 0.987689 -0.156432 0
    outer loop
      vertex 9.2198 0.562143 0
      vertex 9.19032 0.375999 2
      vertex 9.19032 0.375999 0
    endloop
  endfacet
  facet normal 0.86074 -0.509044 0
    outer loop
      vertex 9.53775 1.44526 2
      vertex 9.63368 1.60748 0
      vertex 9.63368 1.60748 2
    endloop
  endfacet
  facet normal 0.86074 -0.509044 0
    outer loop
      vertex 9.63368 1.60748 0
      vertex 9.53775 1.44526 2
      vertex 9.53775 1.44526 0
    endloop
  endfacet
  facet normal 0.790153 -0.612909 0
    outer loop
      vertex 9.73961 1.76336 2
      vertex 9.85513 1.91227 0
      vertex 9.85513 1.91227 2
    endloop
  endfacet
  facet normal 0.790153 -0.612909 0
    outer loop
      vertex 9.85513 1.91227 0
      vertex 9.73961 1.76336 2
      vertex 9.73961 1.76336 0
    endloop
  endfacet
  facet normal 0.995562 -0.0941099 0
    outer loop
      vertex 9.17259 0.188371 2
      vertex 9.19032 0.375999 0
      vertex 9.19032 0.375999 2
    endloop
  endfacet
  facet normal 0.995562 -0.0941099 0
    outer loop
      vertex 9.19032 0.375999 0
      vertex 9.17259 0.188371 2
      vertex 9.17259 0.188371 0
    endloop
  endfacet
  facet normal 0.612906 -0.790156 0
    outer loop
      vertex 10.2544 2.31154 0
      vertex 10.4033 2.42705 2
      vertex 10.2544 2.31154 2
    endloop
  endfacet
  facet normal 0.612906 -0.790156 0
    outer loop
      vertex 10.4033 2.42705 2
      vertex 10.2544 2.31154 0
      vertex 10.4033 2.42705 0
    endloop
  endfacet
  facet normal 0.661313 -0.75011 0
    outer loop
      vertex 10.113 2.18691 0
      vertex 10.2544 2.31154 2
      vertex 10.113 2.18691 2
    endloop
  endfacet
  facet normal 0.661313 -0.75011 0
    outer loop
      vertex 10.2544 2.31154 2
      vertex 10.113 2.18691 0
      vertex 10.2544 2.31154 0
    endloop
  endfacet
  facet normal 0.156432 -0.987689 0
    outer loop
      vertex 11.6045 2.94686 0
      vertex 11.7907 2.97634 2
      vertex 11.6045 2.94686 2
    endloop
  endfacet
  facet normal 0.156432 -0.987689 0
    outer loop
      vertex 11.7907 2.97634 2
      vertex 11.6045 2.94686 0
      vertex 11.7907 2.97634 0
    endloop
  endfacet
  facet normal -0.66131 0.750112 0
    outer loop
      vertex 14.2203 -2.18691 0
      vertex 14.0789 -2.31154 2
      vertex 14.2203 -2.18691 2
    endloop
  endfacet
  facet normal -0.66131 0.750112 0
    outer loop
      vertex 14.0789 -2.31154 2
      vertex 14.2203 -2.18691 0
      vertex 14.0789 -2.31154 0
    endloop
  endfacet
  facet normal -0.891006 0.453992 0
    outer loop
      vertex 14.7956 -1.44526 0
      vertex 14.8811 -1.27734 2
      vertex 14.8811 -1.27734 0
    endloop
  endfacet
  facet normal -0.891006 0.453992 0
    outer loop
      vertex 14.8811 -1.27734 2
      vertex 14.7956 -1.44526 0
      vertex 14.7956 -1.44526 2
    endloop
  endfacet
  facet normal 0.509042 0.860742 -0
    outer loop
      vertex 10.7214 -2.62892 0
      vertex 10.5592 -2.53298 2
      vertex 10.7214 -2.62892 2
    endloop
  endfacet
  facet normal 0.509042 0.860742 0
    outer loop
      vertex 10.5592 -2.53298 2
      vertex 10.7214 -2.62892 0
      vertex 10.5592 -2.53298 0
    endloop
  endfacet
  facet normal 0.612906 0.790156 -0
    outer loop
      vertex 10.4033 -2.42705 0
      vertex 10.2544 -2.31154 2
      vertex 10.4033 -2.42705 2
    endloop
  endfacet
  facet normal 0.612906 0.790156 0
    outer loop
      vertex 10.2544 -2.31154 2
      vertex 10.4033 -2.42705 0
      vertex 10.2544 -2.31154 0
    endloop
  endfacet
  facet normal 0.45399 0.891007 -0
    outer loop
      vertex 10.8893 -2.71448 0
      vertex 10.7214 -2.62892 2
      vertex 10.8893 -2.71448 2
    endloop
  endfacet
  facet normal 0.45399 0.891007 0
    outer loop
      vertex 10.7214 -2.62892 2
      vertex 10.8893 -2.71448 0
      vertex 10.7214 -2.62892 0
    endloop
  endfacet
  facet normal 0.0941103 0.995562 -0
    outer loop
      vertex 11.9783 -2.99408 0
      vertex 11.7907 -2.97634 2
      vertex 11.9783 -2.99408 2
    endloop
  endfacet
  facet normal 0.0941103 0.995562 0
    outer loop
      vertex 11.7907 -2.97634 2
      vertex 11.9783 -2.99408 0
      vertex 11.7907 -2.97634 0
    endloop
  endfacet
  facet normal 0.940881 0.338738 0
    outer loop
      vertex 9.37734 -1.10437 2
      vertex 9.3135 -0.927052 0
      vertex 9.3135 -0.927052 2
    endloop
  endfacet
  facet normal 0.940881 0.338738 0
    outer loop
      vertex 9.3135 -0.927052 0
      vertex 9.37734 -1.10437 2
      vertex 9.37734 -1.10437 0
    endloop
  endfacet
  facet normal -0.987688 -0.156437 0
    outer loop
      vertex 15.143 0.375999 0
      vertex 15.1135 0.562143 2
      vertex 15.1135 0.562143 0
    endloop
  endfacet
  facet normal -0.987688 -0.156437 0
    outer loop
      vertex 15.1135 0.562143 2
      vertex 15.143 0.375999 0
      vertex 15.143 0.375999 2
    endloop
  endfacet
  facet normal -0.940881 -0.338738 0
    outer loop
      vertex 15.0198 0.927051 0
      vertex 14.956 1.10437 2
      vertex 14.956 1.10437 0
    endloop
  endfacet
  facet normal -0.940881 -0.338738 0
    outer loop
      vertex 14.956 1.10437 2
      vertex 15.0198 0.927051 0
      vertex 15.0198 0.927051 2
    endloop
  endfacet
  facet normal -0.75011 -0.661313 0
    outer loop
      vertex 14.4782 1.91227 0
      vertex 14.3536 2.05364 2
      vertex 14.3536 2.05364 0
    endloop
  endfacet
  facet normal -0.75011 -0.661313 0
    outer loop
      vertex 14.3536 2.05364 2
      vertex 14.4782 1.91227 0
      vertex 14.4782 1.91227 2
    endloop
  endfacet
  facet normal -0.891006 -0.453992 0
    outer loop
      vertex 14.8811 1.27734 0
      vertex 14.7956 1.44526 2
      vertex 14.7956 1.44526 0
    endloop
  endfacet
  facet normal -0.891006 -0.453992 0
    outer loop
      vertex 14.7956 1.44526 2
      vertex 14.8811 1.27734 0
      vertex 14.8811 1.27734 2
    endloop
  endfacet
  facet normal -0.218141 -0.975917 0
    outer loop
      vertex 12.7288 2.94686 0
      vertex 12.9127 2.90575 2
      vertex 12.7288 2.94686 2
    endloop
  endfacet
  facet normal -0.218141 -0.975917 -0
    outer loop
      vertex 12.9127 2.90575 2
      vertex 12.7288 2.94686 0
      vertex 12.9127 2.90575 0
    endloop
  endfacet
  facet normal -0.0941103 -0.995562 0
    outer loop
      vertex 12.355 2.99408 0
      vertex 12.5427 2.97634 2
      vertex 12.355 2.99408 2
    endloop
  endfacet
  facet normal -0.0941103 -0.995562 -0
    outer loop
      vertex 12.5427 2.97634 2
      vertex 12.355 2.99408 0
      vertex 12.5427 2.97634 0
    endloop
  endfacet
  facet normal -0.0314139 -0.999506 0
    outer loop
      vertex 12.1667 3 0
      vertex 12.355 2.99408 2
      vertex 12.1667 3 2
    endloop
  endfacet
  facet normal -0.0314139 -0.999506 -0
    outer loop
      vertex 12.355 2.99408 2
      vertex 12.1667 3 0
      vertex 12.355 2.99408 0
    endloop
  endfacet
  facet normal -0.397148 -0.917755 0
    outer loop
      vertex 13.271 2.78933 0
      vertex 13.444 2.71448 2
      vertex 13.271 2.78933 2
    endloop
  endfacet
  facet normal -0.397148 -0.917755 -0
    outer loop
      vertex 13.444 2.71448 2
      vertex 13.271 2.78933 0
      vertex 13.444 2.71448 0
    endloop
  endfacet
  facet normal -0.562082 -0.827082 0
    outer loop
      vertex 13.7741 2.53298 0
      vertex 13.93 2.42705 2
      vertex 13.7741 2.53298 2
    endloop
  endfacet
  facet normal -0.562082 -0.827082 -0
    outer loop
      vertex 13.93 2.42705 2
      vertex 13.7741 2.53298 0
      vertex 13.93 2.42705 0
    endloop
  endfacet
  facet normal -0.66131 -0.750112 0
    outer loop
      vertex 14.0789 2.31154 0
      vertex 14.2203 2.18691 2
      vertex 14.0789 2.31154 2
    endloop
  endfacet
  facet normal -0.66131 -0.750112 -0
    outer loop
      vertex 14.2203 2.18691 2
      vertex 14.0789 2.31154 0
      vertex 14.2203 2.18691 0
    endloop
  endfacet
  facet normal 0.827082 -0.562082 0
    outer loop
      vertex 9.63368 1.60748 2
      vertex 9.73961 1.76336 0
      vertex 9.73961 1.76336 2
    endloop
  endfacet
  facet normal 0.827082 -0.562082 0
    outer loop
      vertex 9.73961 1.76336 0
      vertex 9.63368 1.60748 2
      vertex 9.63368 1.60748 0
    endloop
  endfacet
  facet normal 0.917755 -0.397148 0
    outer loop
      vertex 9.37734 1.10437 2
      vertex 9.45218 1.27734 0
      vertex 9.45218 1.27734 2
    endloop
  endfacet
  facet normal 0.917755 -0.397148 0
    outer loop
      vertex 9.45218 1.27734 0
      vertex 9.37734 1.10437 2
      vertex 9.37734 1.10437 0
    endloop
  endfacet
  facet normal 0.891008 -0.453987 0
    outer loop
      vertex 9.45218 1.27734 2
      vertex 9.53775 1.44526 0
      vertex 9.53775 1.44526 2
    endloop
  endfacet
  facet normal 0.891008 -0.453987 0
    outer loop
      vertex 9.53775 1.44526 0
      vertex 9.45218 1.27734 2
      vertex 9.45218 1.27734 0
    endloop
  endfacet
  facet normal 0.975916 -0.218147 0
    outer loop
      vertex 9.2198 0.562143 2
      vertex 9.26092 0.746069 0
      vertex 9.26092 0.746069 2
    endloop
  endfacet
  facet normal 0.975916 -0.218147 0
    outer loop
      vertex 9.26092 0.746069 0
      vertex 9.2198 0.562143 2
      vertex 9.2198 0.562143 0
    endloop
  endfacet
  facet normal 0.960294 -0.27899 0
    outer loop
      vertex 9.26092 0.746069 2
      vertex 9.3135 0.927051 0
      vertex 9.3135 0.927051 2
    endloop
  endfacet
  facet normal 0.960294 -0.27899 0
    outer loop
      vertex 9.3135 0.927051 0
      vertex 9.26092 0.746069 2
      vertex 9.26092 0.746069 0
    endloop
  endfacet
  facet normal 0.999507 -0.031409 0
    outer loop
      vertex 9.16667 0 2
      vertex 9.17259 0.188371 0
      vertex 9.17259 0.188371 2
    endloop
  endfacet
  facet normal 0.999507 -0.031409 0
    outer loop
      vertex 9.17259 0.188371 0
      vertex 9.16667 0 2
      vertex 9.16667 0 0
    endloop
  endfacet
  facet normal 0.562082 -0.827082 0
    outer loop
      vertex 10.4033 2.42705 0
      vertex 10.5592 2.53298 2
      vertex 10.4033 2.42705 2
    endloop
  endfacet
  facet normal 0.562082 -0.827082 0
    outer loop
      vertex 10.5592 2.53298 2
      vertex 10.4033 2.42705 0
      vertex 10.5592 2.53298 0
    endloop
  endfacet
  facet normal 0.509042 -0.860742 0
    outer loop
      vertex 10.5592 2.53298 0
      vertex 10.7214 2.62892 2
      vertex 10.5592 2.53298 2
    endloop
  endfacet
  facet normal 0.509042 -0.860742 0
    outer loop
      vertex 10.7214 2.62892 2
      vertex 10.5592 2.53298 0
      vertex 10.7214 2.62892 0
    endloop
  endfacet
  facet normal 0.707109 -0.707104 0
    outer loop
      vertex 9.97976 2.05364 2
      vertex 10.113 2.18691 0
      vertex 10.113 2.18691 2
    endloop
  endfacet
  facet normal 0.707109 -0.707104 0
    outer loop
      vertex 10.113 2.18691 0
      vertex 9.97976 2.05364 2
      vertex 9.97976 2.05364 0
    endloop
  endfacet
  facet normal 0.338742 -0.940879 0
    outer loop
      vertex 11.0623 2.78933 0
      vertex 11.2396 2.85317 2
      vertex 11.0623 2.78933 2
    endloop
  endfacet
  facet normal 0.338742 -0.940879 0
    outer loop
      vertex 11.2396 2.85317 2
      vertex 11.0623 2.78933 0
      vertex 11.2396 2.85317 0
    endloop
  endfacet
  facet normal 0.397148 -0.917755 0
    outer loop
      vertex 10.8893 2.71448 0
      vertex 11.0623 2.78933 2
      vertex 10.8893 2.71448 2
    endloop
  endfacet
  facet normal 0.397148 -0.917755 0
    outer loop
      vertex 11.0623 2.78933 2
      vertex 10.8893 2.71448 0
      vertex 11.0623 2.78933 0
    endloop
  endfacet
  facet normal 0.218142 -0.975917 0
    outer loop
      vertex 11.4206 2.90575 0
      vertex 11.6045 2.94686 2
      vertex 11.4206 2.90575 2
    endloop
  endfacet
  facet normal 0.218142 -0.975917 0
    outer loop
      vertex 11.6045 2.94686 2
      vertex 11.4206 2.90575 0
      vertex 11.6045 2.94686 0
    endloop
  endfacet
  facet normal 0.0941103 -0.995562 0
    outer loop
      vertex 11.7907 2.97634 0
      vertex 11.9783 2.99408 2
      vertex 11.7907 2.97634 2
    endloop
  endfacet
  facet normal 0.0941103 -0.995562 0
    outer loop
      vertex 11.9783 2.99408 2
      vertex 11.7907 2.97634 0
      vertex 11.9783 2.99408 0
    endloop
  endfacet
  facet normal -0.999506 0.0314139 0
    outer loop
      vertex 15.1607 -0.188372 0
      vertex 15.1667 0 2
      vertex 15.1667 0 0
    endloop
  endfacet
  facet normal -0.999506 0.0314139 0
    outer loop
      vertex 15.1667 0 2
      vertex 15.1607 -0.188372 0
      vertex 15.1607 -0.188372 2
    endloop
  endfacet
  facet normal -0.0941103 0.995562 0
    outer loop
      vertex 12.5427 -2.97634 0
      vertex 12.355 -2.99408 2
      vertex 12.5427 -2.97634 2
    endloop
  endfacet
  facet normal -0.0941103 0.995562 0
    outer loop
      vertex 12.355 -2.99408 2
      vertex 12.5427 -2.97634 0
      vertex 12.355 -2.99408 0
    endloop
  endfacet
  facet normal -0.218141 0.975917 0
    outer loop
      vertex 12.9127 -2.90575 0
      vertex 12.7288 -2.94686 2
      vertex 12.9127 -2.90575 2
    endloop
  endfacet
  facet normal -0.218141 0.975917 0
    outer loop
      vertex 12.7288 -2.94686 2
      vertex 12.9127 -2.90575 0
      vertex 12.7288 -2.94686 0
    endloop
  endfacet
  facet normal -0.397148 0.917755 0
    outer loop
      vertex 13.444 -2.71448 0
      vertex 13.271 -2.78933 2
      vertex 13.444 -2.71448 2
    endloop
  endfacet
  facet normal -0.397148 0.917755 0
    outer loop
      vertex 13.271 -2.78933 2
      vertex 13.444 -2.71448 0
      vertex 13.271 -2.78933 0
    endloop
  endfacet
  facet normal -0.278992 0.960293 0
    outer loop
      vertex 13.0937 -2.85317 0
      vertex 12.9127 -2.90575 2
      vertex 13.0937 -2.85317 2
    endloop
  endfacet
  facet normal -0.278992 0.960293 0
    outer loop
      vertex 12.9127 -2.90575 2
      vertex 13.0937 -2.85317 0
      vertex 12.9127 -2.90575 0
    endloop
  endfacet
  facet normal -0.707109 0.707104 0
    outer loop
      vertex 14.2203 -2.18691 0
      vertex 14.3536 -2.05364 2
      vertex 14.3536 -2.05364 0
    endloop
  endfacet
  facet normal -0.707109 0.707104 0
    outer loop
      vertex 14.3536 -2.05364 2
      vertex 14.2203 -2.18691 0
      vertex 14.2203 -2.18691 2
    endloop
  endfacet
  facet normal -0.612906 0.790156 0
    outer loop
      vertex 14.0789 -2.31154 0
      vertex 13.93 -2.42705 2
      vertex 14.0789 -2.31154 2
    endloop
  endfacet
  facet normal -0.612906 0.790156 0
    outer loop
      vertex 13.93 -2.42705 2
      vertex 14.0789 -2.31154 0
      vertex 13.93 -2.42705 0
    endloop
  endfacet
  facet normal -0.509044 0.86074 0
    outer loop
      vertex 13.7741 -2.53298 0
      vertex 13.6119 -2.62892 2
      vertex 13.7741 -2.53298 2
    endloop
  endfacet
  facet normal -0.509044 0.86074 0
    outer loop
      vertex 13.6119 -2.62892 2
      vertex 13.7741 -2.53298 0
      vertex 13.6119 -2.62892 0
    endloop
  endfacet
  facet normal -0.790156 0.612906 0
    outer loop
      vertex 14.4782 -1.91227 0
      vertex 14.5937 -1.76336 2
      vertex 14.5937 -1.76336 0
    endloop
  endfacet
  facet normal -0.790156 0.612906 0
    outer loop
      vertex 14.5937 -1.76336 2
      vertex 14.4782 -1.91227 0
      vertex 14.4782 -1.91227 2
    endloop
  endfacet
  facet normal -0.860743 0.50904 0
    outer loop
      vertex 14.6996 -1.60748 0
      vertex 14.7956 -1.44526 2
      vertex 14.7956 -1.44526 0
    endloop
  endfacet
  facet normal -0.860743 0.50904 0
    outer loop
      vertex 14.7956 -1.44526 2
      vertex 14.6996 -1.60748 0
      vertex 14.6996 -1.60748 2
    endloop
  endfacet
  facet normal -0.917755 0.397148 0
    outer loop
      vertex 14.8811 -1.27734 0
      vertex 14.956 -1.10437 2
      vertex 14.956 -1.10437 0
    endloop
  endfacet
  facet normal -0.917755 0.397148 0
    outer loop
      vertex 14.956 -1.10437 2
      vertex 14.8811 -1.27734 0
      vertex 14.8811 -1.27734 2
    endloop
  endfacet
  facet normal -0.960294 0.27899 0
    outer loop
      vertex 15.0198 -0.927052 0
      vertex 15.0724 -0.74607 2
      vertex 15.0724 -0.74607 0
    endloop
  endfacet
  facet normal -0.960294 0.27899 0
    outer loop
      vertex 15.0724 -0.74607 2
      vertex 15.0198 -0.927052 0
      vertex 15.0198 -0.927052 2
    endloop
  endfacet
  facet normal -0.995562 0.0941049 0
    outer loop
      vertex 15.143 -0.376 0
      vertex 15.1607 -0.188372 2
      vertex 15.1607 -0.188372 0
    endloop
  endfacet
  facet normal -0.995562 0.0941049 0
    outer loop
      vertex 15.1607 -0.188372 2
      vertex 15.143 -0.376 0
      vertex 15.143 -0.376 2
    endloop
  endfacet
  facet normal 0.562082 0.827082 -0
    outer loop
      vertex 10.5592 -2.53298 0
      vertex 10.4033 -2.42705 2
      vertex 10.5592 -2.53298 2
    endloop
  endfacet
  facet normal 0.562082 0.827082 0
    outer loop
      vertex 10.4033 -2.42705 2
      vertex 10.5592 -2.53298 0
      vertex 10.4033 -2.42705 0
    endloop
  endfacet
  facet normal 0.397148 0.917755 -0
    outer loop
      vertex 11.0623 -2.78933 0
      vertex 10.8893 -2.71448 2
      vertex 11.0623 -2.78933 2
    endloop
  endfacet
  facet normal 0.397148 0.917755 0
    outer loop
      vertex 10.8893 -2.71448 2
      vertex 11.0623 -2.78933 0
      vertex 10.8893 -2.71448 0
    endloop
  endfacet
  facet normal 0.27899 0.960294 -0
    outer loop
      vertex 11.4206 -2.90575 0
      vertex 11.2396 -2.85317 2
      vertex 11.4206 -2.90575 2
    endloop
  endfacet
  facet normal 0.27899 0.960294 0
    outer loop
      vertex 11.2396 -2.85317 2
      vertex 11.4206 -2.90575 0
      vertex 11.2396 -2.85317 0
    endloop
  endfacet
  facet normal 0.156432 0.987689 -0
    outer loop
      vertex 11.7907 -2.97634 0
      vertex 11.6045 -2.94686 2
      vertex 11.7907 -2.97634 2
    endloop
  endfacet
  facet normal 0.156432 0.987689 0
    outer loop
      vertex 11.6045 -2.94686 2
      vertex 11.7907 -2.97634 0
      vertex 11.6045 -2.94686 0
    endloop
  endfacet
  facet normal 0.0314088 0.999507 -0
    outer loop
      vertex 12.1667 -3 0
      vertex 11.9783 -2.99408 2
      vertex 12.1667 -3 2
    endloop
  endfacet
  facet normal 0.0314088 0.999507 0
    outer loop
      vertex 11.9783 -2.99408 2
      vertex 12.1667 -3 0
      vertex 11.9783 -2.99408 0
    endloop
  endfacet
  facet normal 0.86074 0.509044 0
    outer loop
      vertex 9.63368 -1.60748 2
      vertex 9.53775 -1.44526 0
      vertex 9.53775 -1.44526 2
    endloop
  endfacet
  facet normal 0.86074 0.509044 0
    outer loop
      vertex 9.53775 -1.44526 0
      vertex 9.63368 -1.60748 2
      vertex 9.63368 -1.60748 0
    endloop
  endfacet
  facet normal 0.790153 0.612909 0
    outer loop
      vertex 9.85513 -1.91227 2
      vertex 9.73961 -1.76336 0
      vertex 9.73961 -1.76336 2
    endloop
  endfacet
  facet normal 0.790153 0.612909 0
    outer loop
      vertex 9.73961 -1.76336 0
      vertex 9.85513 -1.91227 2
      vertex 9.85513 -1.91227 0
    endloop
  endfacet
  facet normal 0.75011 0.661313 0
    outer loop
      vertex 9.97976 -2.05364 2
      vertex 9.85513 -1.91227 0
      vertex 9.85513 -1.91227 2
    endloop
  endfacet
  facet normal 0.75011 0.661313 0
    outer loop
      vertex 9.85513 -1.91227 0
      vertex 9.97976 -2.05364 2
      vertex 9.97976 -2.05364 0
    endloop
  endfacet
  facet normal 0.917755 0.397148 0
    outer loop
      vertex 9.45218 -1.27734 2
      vertex 9.37734 -1.10437 0
      vertex 9.37734 -1.10437 2
    endloop
  endfacet
  facet normal 0.917755 0.397148 0
    outer loop
      vertex 9.37734 -1.10437 0
      vertex 9.45218 -1.27734 2
      vertex 9.45218 -1.27734 0
    endloop
  endfacet
  facet normal 0.975916 0.218147 0
    outer loop
      vertex 9.26092 -0.74607 2
      vertex 9.2198 -0.562144 0
      vertex 9.2198 -0.562144 2
    endloop
  endfacet
  facet normal 0.975916 0.218147 0
    outer loop
      vertex 9.2198 -0.562144 0
      vertex 9.26092 -0.74607 2
      vertex 9.26092 -0.74607 0
    endloop
  endfacet
  facet normal 0.995562 0.0941099 0
    outer loop
      vertex 9.19032 -0.376 2
      vertex 9.17259 -0.188372 0
      vertex 9.17259 -0.188372 2
    endloop
  endfacet
  facet normal 0.995562 0.0941099 0
    outer loop
      vertex 9.17259 -0.188372 0
      vertex 9.19032 -0.376 2
      vertex 9.19032 -0.376 0
    endloop
  endfacet
  facet normal 0.999507 0.0314088 0
    outer loop
      vertex 9.17259 -0.188372 2
      vertex 9.16667 0 0
      vertex 9.16667 0 2
    endloop
  endfacet
  facet normal 0.999507 0.0314088 0
    outer loop
      vertex 9.16667 0 0
      vertex 9.17259 -0.188372 2
      vertex 9.17259 -0.188372 0
    endloop
  endfacet
  facet normal -0.156432 0.987689 0
    outer loop
      vertex 12.7288 -2.94686 0
      vertex 12.5427 -2.97634 2
      vertex 12.7288 -2.94686 2
    endloop
  endfacet
  facet normal -0.156432 0.987689 0
    outer loop
      vertex 12.5427 -2.97634 2
      vertex 12.7288 -2.94686 0
      vertex 12.5427 -2.97634 0
    endloop
  endfacet
  facet normal -0.45399 0.891007 0
    outer loop
      vertex 13.6119 -2.62892 0
      vertex 13.444 -2.71448 2
      vertex 13.6119 -2.62892 2
    endloop
  endfacet
  facet normal -0.45399 0.891007 0
    outer loop
      vertex 13.444 -2.71448 2
      vertex 13.6119 -2.62892 0
      vertex 13.444 -2.71448 0
    endloop
  endfacet
  facet normal -0.33874 0.94088 0
    outer loop
      vertex 13.271 -2.78933 0
      vertex 13.0937 -2.85317 2
      vertex 13.271 -2.78933 2
    endloop
  endfacet
  facet normal -0.33874 0.94088 0
    outer loop
      vertex 13.0937 -2.85317 2
      vertex 13.271 -2.78933 0
      vertex 13.0937 -2.85317 0
    endloop
  endfacet
  facet normal -0.75011 0.661313 0
    outer loop
      vertex 14.3536 -2.05364 0
      vertex 14.4782 -1.91227 2
      vertex 14.4782 -1.91227 0
    endloop
  endfacet
  facet normal -0.75011 0.661313 0
    outer loop
      vertex 14.4782 -1.91227 2
      vertex 14.3536 -2.05364 0
      vertex 14.3536 -2.05364 2
    endloop
  endfacet
  facet normal -0.562082 0.827082 0
    outer loop
      vertex 13.93 -2.42705 0
      vertex 13.7741 -2.53298 2
      vertex 13.93 -2.42705 2
    endloop
  endfacet
  facet normal -0.562082 0.827082 0
    outer loop
      vertex 13.7741 -2.53298 2
      vertex 13.93 -2.42705 0
      vertex 13.7741 -2.53298 0
    endloop
  endfacet
  facet normal -0.827079 0.562085 0
    outer loop
      vertex 14.5937 -1.76336 0
      vertex 14.6996 -1.60748 2
      vertex 14.6996 -1.60748 0
    endloop
  endfacet
  facet normal -0.827079 0.562085 0
    outer loop
      vertex 14.6996 -1.60748 2
      vertex 14.5937 -1.76336 0
      vertex 14.5937 -1.76336 2
    endloop
  endfacet
  facet normal -0.940881 0.338738 0
    outer loop
      vertex 14.956 -1.10437 0
      vertex 15.0198 -0.927052 2
      vertex 15.0198 -0.927052 0
    endloop
  endfacet
  facet normal -0.940881 0.338738 0
    outer loop
      vertex 15.0198 -0.927052 2
      vertex 14.956 -1.10437 0
      vertex 14.956 -1.10437 2
    endloop
  endfacet
  facet normal -0.975917 0.218142 0
    outer loop
      vertex 15.0724 -0.74607 0
      vertex 15.1135 -0.562144 2
      vertex 15.1135 -0.562144 0
    endloop
  endfacet
  facet normal -0.975917 0.218142 0
    outer loop
      vertex 15.1135 -0.562144 2
      vertex 15.0724 -0.74607 0
      vertex 15.0724 -0.74607 2
    endloop
  endfacet
  facet normal 0.338742 0.940879 -0
    outer loop
      vertex 11.2396 -2.85317 0
      vertex 11.0623 -2.78933 2
      vertex 11.2396 -2.85317 2
    endloop
  endfacet
  facet normal 0.338742 0.940879 0
    outer loop
      vertex 11.0623 -2.78933 2
      vertex 11.2396 -2.85317 0
      vertex 11.0623 -2.78933 0
    endloop
  endfacet
  facet normal 0.218142 0.975917 -0
    outer loop
      vertex 11.6045 -2.94686 0
      vertex 11.4206 -2.90575 2
      vertex 11.6045 -2.94686 2
    endloop
  endfacet
  facet normal 0.218142 0.975917 0
    outer loop
      vertex 11.4206 -2.90575 2
      vertex 11.6045 -2.94686 0
      vertex 11.4206 -2.90575 0
    endloop
  endfacet
  facet normal -0.0314088 0.999507 0
    outer loop
      vertex 12.355 -2.99408 0
      vertex 12.1667 -3 2
      vertex 12.355 -2.99408 2
    endloop
  endfacet
  facet normal -0.0314088 0.999507 0
    outer loop
      vertex 12.1667 -3 2
      vertex 12.355 -2.99408 0
      vertex 12.1667 -3 0
    endloop
  endfacet
  facet normal 0.827082 0.562082 0
    outer loop
      vertex 9.73961 -1.76336 2
      vertex 9.63368 -1.60748 0
      vertex 9.63368 -1.60748 2
    endloop
  endfacet
  facet normal 0.827082 0.562082 0
    outer loop
      vertex 9.63368 -1.60748 0
      vertex 9.73961 -1.76336 2
      vertex 9.73961 -1.76336 0
    endloop
  endfacet
  facet normal 0.707109 0.707104 0
    outer loop
      vertex 10.113 -2.18691 2
      vertex 9.97976 -2.05364 0
      vertex 9.97976 -2.05364 2
    endloop
  endfacet
  facet normal 0.707109 0.707104 0
    outer loop
      vertex 9.97976 -2.05364 0
      vertex 10.113 -2.18691 2
      vertex 10.113 -2.18691 0
    endloop
  endfacet
  facet normal 0.891008 0.453987 0
    outer loop
      vertex 9.53775 -1.44526 2
      vertex 9.45218 -1.27734 0
      vertex 9.45218 -1.27734 2
    endloop
  endfacet
  facet normal 0.891008 0.453987 0
    outer loop
      vertex 9.45218 -1.27734 0
      vertex 9.53775 -1.44526 2
      vertex 9.53775 -1.44526 0
    endloop
  endfacet
  facet normal 0.987689 0.156432 0
    outer loop
      vertex 9.2198 -0.562144 2
      vertex 9.19032 -0.376 0
      vertex 9.19032 -0.376 2
    endloop
  endfacet
  facet normal 0.987689 0.156432 0
    outer loop
      vertex 9.19032 -0.376 0
      vertex 9.2198 -0.562144 2
      vertex 9.2198 -0.562144 0
    endloop
  endfacet
  facet normal -0.987688 0.156437 0
    outer loop
      vertex 15.1135 -0.562144 0
      vertex 15.143 -0.376 2
      vertex 15.143 -0.376 0
    endloop
  endfacet
  facet normal -0.987688 0.156437 0
    outer loop
      vertex 15.143 -0.376 2
      vertex 15.1135 -0.562144 0
      vertex 15.1135 -0.562144 2
    endloop
  endfacet
endsolid OpenSCAD_Model
